<?xml version="1.0" encoding="utf-8"?>
<!-- Generator: Adobe Illustrator 17.0.0, SVG Export Plug-In . SVG Version: 6.00 Build 0)  -->
<!DOCTYPE svg PUBLIC "-//W3C//DTD SVG 1.1//EN" "http://www.w3.org/Graphics/SVG/1.1/DTD/svg11.dtd">
<svg version="1.1" id="Layer_1" xmlns="http://www.w3.org/2000/svg" xmlns:xlink="http://www.w3.org/1999/xlink" x="0px" y="0px"
	 width="3454.32px" height="875.264px" viewBox="0 0 3454.32 875.264" enable-background="new 0 0 3454.32 875.264"
	 xml:space="preserve">
<g>
	<g>
		<defs>
			<path id="SVGID_1_" d="M661.582,301.175c1.557,2.613,2.819,4.74,4.089,6.863c31.509,52.683,43.423,109.647,36.336,170.455
				c-4.289,36.808-16.123,71.292-35.324,103.064c-2.705,4.476-1.933,6.207,2.259,8.739c43.754,26.435,87.388,53.07,131.058,79.644
				c6.259,3.809,6.234,3.778,10.017-2.331c40.186-64.905,61.464-135.698,65.173-211.758c1.419-29.115-0.417-58.196-5.047-87.013
				c-6.529-40.632-18.249-79.731-35.923-116.926c-6.481-13.636-13.845-26.853-21.17-40.963
				C761.891,241.423,711.886,271.21,661.582,301.175"/>
		</defs>
		<clipPath id="SVGID_2_">
			<use xlink:href="#SVGID_1_"  overflow="visible"/>
		</clipPath>
		
			<linearGradient id="SVGID_3_" gradientUnits="userSpaceOnUse" x1="1596.4396" y1="-402.7462" x2="1597.4396" y2="-402.7462" gradientTransform="matrix(214.0764 0 0 214.0764 -341098.4375 86660.8203)">
			<stop  offset="0" style="stop-color:#E34947"/>
			<stop  offset="1" style="stop-color:#C53643"/>
		</linearGradient>
		<rect x="661.582" y="210.949" clip-path="url(#SVGID_2_)" fill="url(#SVGID_3_)" width="215.027" height="462.8"/>
	</g>
</g>
<g>
	<g>
		<defs>
			<path id="SVGID_4_" d="M427.405,0c-0.408,0-0.845,0.02-1.312,0.057c-10.765,0.865-21.573,1.198-32.333,2.098
				c-28.932,2.419-57.25,8.191-84.88,16.978C201.82,53.18,119.416,118.594,61.033,214.485c-2.172,3.568-1.26,5.046,1.913,6.969
				c47.145,28.578,94.256,57.213,141.284,85.982c3.698,2.263,5.28,1.433,7.355-1.954c14.749-24.066,33.018-45.161,54.639-63.283
				c37.332-31.291,79.954-51.271,128.144-58.903c10.803-1.711,21.762-2.511,32.676-3.419c4.293-0.358,5.394-2.133,5.367-6.302
				c-0.182-27.83-0.094-55.663-0.094-83.495c-0.001-27.999-0.114-55.998,0.104-83.996c0.035-4.463-1.281-6.078-4.983-6.084
				L427.405,0L427.405,0z"/>
		</defs>
		<clipPath id="SVGID_5_">
			<use xlink:href="#SVGID_4_"  overflow="visible"/>
		</clipPath>
		
			<linearGradient id="SVGID_6_" gradientUnits="userSpaceOnUse" x1="1599.0858" y1="-402.4853" x2="1600.0858" y2="-402.4853" gradientTransform="matrix(372.5753 0 0 372.5753 -595720 150110.9063)">
			<stop  offset="0" style="stop-color:#E34947"/>
			<stop  offset="1" style="stop-color:#C53643"/>
		</linearGradient>
		<rect x="58.861" y="0" clip-path="url(#SVGID_5_)" fill="url(#SVGID_6_)" width="373.595" height="309.699"/>
	</g>
</g>
<g>
	<g>
		<defs>
			<path id="SVGID_7_" d="M443.285,6.676c-0.003,54.992-0.002,109.984-0.001,164.976c0,8.111,0.032,7.817,8.295,8.678
				c13.859,1.444,27.877,2.327,41.471,5.162c53.164,11.088,98.686,36.439,136.321,75.616c8.976,9.343,17.091,19.516,26.158,29.946
				c49.986-29.777,100.145-59.658,150.57-89.697c-1.135-1.927-1.902-3.374-2.801-4.734c-25-37.816-54.983-71.171-90.378-99.481
				C636.05,35.659,548.467,2.946,449.906,0.151c-0.911-0.026-1.698-0.047-2.376-0.047C443.293,0.104,443.285,0.934,443.285,6.676"/>
		</defs>
		<clipPath id="SVGID_8_">
			<use xlink:href="#SVGID_7_"  overflow="visible"/>
		</clipPath>
		
			<linearGradient id="SVGID_9_" gradientUnits="userSpaceOnUse" x1="1598.9896" y1="-402.4962" x2="1599.9896" y2="-402.4962" gradientTransform="matrix(362.8153 0 0 362.8153 -579694.625 146177.3594)">
			<stop  offset="0" style="stop-color:#80969C"/>
			<stop  offset="1" style="stop-color:#637D85"/>
		</linearGradient>
		<rect x="443.282" y="0.104" clip-path="url(#SVGID_8_)" fill="url(#SVGID_9_)" width="362.817" height="290.95"/>
	</g>
</g>
<g>
	<g>
		<defs>
			<path id="SVGID_10_" d="M60.583,659.171c1.317,2.243,2.349,4.1,3.473,5.899c59.071,94.564,141.651,158.732,248.286,191.596
				c29.312,9.033,59.335,14.695,89.989,16.712c7.631,0.502,15.296,0.612,22.894,1.401c7.022,0.731,7.089,0.951,7.089-6.022
				c0.003-49.493,0.002-98.986,0.002-148.48c0-8.618-0.137-8.384-8.89-9.115c-11.737-0.982-23.573-1.784-35.108-4.01
				c-69.177-13.35-124.475-48.882-166.229-105.492c-6.492-8.802-12.103-18.253-18.355-27.761
				C156.163,602.236,108.577,630.583,60.583,659.171"/>
		</defs>
		<clipPath id="SVGID_11_">
			<use xlink:href="#SVGID_10_"  overflow="visible"/>
		</clipPath>
		
			<linearGradient id="SVGID_12_" gradientUnits="userSpaceOnUse" x1="1599.0778" y1="-402.4868" x2="1600.0778" y2="-402.4868" gradientTransform="matrix(371.7328 0 0 371.7328 -594369.0625 150342.3281)">
			<stop  offset="0" style="stop-color:#E34947"/>
			<stop  offset="1" style="stop-color:#C53643"/>
		</linearGradient>
		<rect x="60.583" y="573.899" clip-path="url(#SVGID_11_)" fill="url(#SVGID_12_)" width="371.734" height="301.831"/>
	</g>
</g>
<g>
	<g>
		<defs>
			<path id="SVGID_13_" d="M51.557,231.399c-3.995,8.051-8.126,16.04-11.891,24.198C15.737,307.441,3,362.071,0.426,418.972
				C0.142,425.239,0.001,431.5,0,437.754v0.181c0.007,27.931,2.806,55.724,8.208,83.28c8.516,43.44,23.282,84.623,44.112,123.663
				c1.525,2.858,2.915,3.823,6.149,1.888c45.447-27.197,90.95-54.298,136.505-81.312c2.978-1.766,3.371-3.385,1.973-6.383
				c-18.993-40.716-27.867-83.45-24.504-128.374c1.075-14.371,2.906-28.773,5.672-42.91c4.593-23.474,13.264-45.635,24.731-67.478
				c-50.114-30.496-99.83-60.749-149.546-91.002C52.385,230.388,51.839,230.828,51.557,231.399"/>
		</defs>
		<clipPath id="SVGID_14_">
			<use xlink:href="#SVGID_13_"  overflow="visible"/>
		</clipPath>
		
			<linearGradient id="SVGID_15_" gradientUnits="userSpaceOnUse" x1="1596.0951" y1="-402.7812" x2="1597.0951" y2="-402.7812" gradientTransform="matrix(202.8453 0 0 202.8453 -323760.4063 82141.2813)">
			<stop  offset="0" style="stop-color:#80969C"/>
			<stop  offset="1" style="stop-color:#637D85"/>
		</linearGradient>
		<rect x="0" y="229.307" clip-path="url(#SVGID_14_)" fill="url(#SVGID_15_)" width="202.846" height="419.394"/>
	</g>
</g>
<g>
	<g>
		<defs>
			<path id="SVGID_16_" d="M654.058,600.91c-16.847,23.695-37.149,43.986-60.792,60.893c-2.873,2.054-4.092,4.286-4.066,7.862
				c0.15,20.326,0.072,40.654,0.072,60.981c0,1.939,0,3.878,0,7.34c-3.203-2.045-5.032-3.114-6.759-4.331
				c-16.332-11.518-32.694-22.994-48.924-34.654c-3.143-2.258-5.799-2.593-9.605-1.474c-12.261,3.604-24.582,7.236-37.115,9.622
				c-11.537,2.196-23.361,2.994-35.092,4.034c-8.326,0.738-8.493,0.602-8.493,8.482c0,49.318,0,98.636,0,147.954
				c0.001,1.333,0.062,2.669-0.006,3.998c-0.149,2.888,1.317,3.823,4.01,3.62c8.611-0.649,17.222-1.3,25.84-1.829
				c22.957-1.409,45.56-5.169,67.836-10.715c102.661-25.557,185.403-81.181,249.033-165.503c3.259-4.321,6.222-8.865,9.405-13.42
				c-1.372-1.021-2.12-1.677-2.957-2.187c-45.088-27.45-90.21-54.845-135.228-82.41c-1.308-0.801-2.344-1.169-3.235-1.169
				C656.458,598.004,655.359,599.081,654.058,600.91"/>
		</defs>
		<clipPath id="SVGID_17_">
			<use xlink:href="#SVGID_16_"  overflow="visible"/>
		</clipPath>
		
			<linearGradient id="SVGID_18_" gradientUnits="userSpaceOnUse" x1="1598.9204" y1="-402.503" x2="1599.9208" y2="-402.503" gradientTransform="matrix(356.1342 0 0 356.1342 -568987.125 144081.7813)">
			<stop  offset="0" style="stop-color:#80969C"/>
			<stop  offset="1" style="stop-color:#637D85"/>
		</linearGradient>
		<rect x="443.129" y="598.004" clip-path="url(#SVGID_17_)" fill="url(#SVGID_18_)" width="356.273" height="277.436"/>
	</g>
</g>
<g>
	<g>
		<defs>
			<rect id="SVGID_19_" width="3454.324" height="875.264"/>
		</defs>
		<clipPath id="SVGID_20_">
			<use xlink:href="#SVGID_19_"  overflow="visible"/>
		</clipPath>
		<g clip-path="url(#SVGID_20_)">
			<g enable-background="new    ">
				<path fill="#446E7B" d="M985.206,239.736h6.375h1.594h9.031h2.125h2.125h2.125h2.125h5.844h9.563h2.125h3.188h2.656h3.188h3.719
					h3.188h3.719h16.469h1.594h1.594h10.625h4.25h4.25c2.302,0.531,5.313,0.886,9.031,1.063l1.063,0.531h1.594l3.719,1.063
					l1.594,0.531l2.656,0.531l1.063,1.063h1.594l1.594,0.531l9.563,5.313l1.063,0.531l1.063,0.531l1.063,1.063l1.594,1.063
					l1.063,1.063l1.594,0.531c0.708,0.886,1.771,1.949,3.188,3.188l1.063,1.063c0.797,0.886,2.036,1.949,3.719,3.188
					c0.087,0.355,0.442,0.71,1.063,1.063c1.239,2.656,3.364,5.491,6.375,8.5c0.353,0.976,0.884,2.038,1.594,3.188l0.531,1.594
					c0.618,1.417,1.505,2.835,2.656,4.25c0.531,1.949,1.415,4.25,2.656,6.906c-0.089,0.355,0.087,0.71,0.531,1.063
					c0.087,2.48,0.797,5.313,2.125,8.5c-0.179,1.417,0,2.835,0.531,4.25c-0.179,1.859,0,3.984,0.531,6.375v1.594v1.594v2.125v3.719
					v1.594v1.594v3.719v1.594v2.125v2.656v5.844v6.375v1.594v9.031v2.125v6.906v6.375v1.594v9.031v9.563v2.125v6.375v1.594v9.031
					v2.125l-0.531,3.719l-1.594,9.031l-2.125,6.375l-1.594,4.25l-1.063,1.594c6.375,8.5,7.79,18.241,4.25,29.219
					c-3.276,4.429-7.703,8.147-13.281,11.156c-8.679,1.681-17.179-0.266-25.5-5.844c-2.038,1.241-4.516,2.304-7.438,3.188
					l-9.031,2.656l-11.688,1.063h-1.594h-2.125h-1.594h-1.594h-1.594h-2.125h-1.594h-2.125h-1.594h-6.375h-1.594h-9.031h-2.125
					h-2.125h-6.906h-1.594h-7.438h-2.656h-3.719h-4.25h-9.031h-2.125h-2.125h-2.125h-2.125
					c-36.214,3.896-63.132-10.625-80.75-43.563c-0.266-2.301-1.152-4.958-2.656-7.969l-1.063-4.25l-0.531-2.125
					c0-2.922-0.355-6.462-1.063-10.625V330.58C913.487,277.279,936.152,246.998,985.206,239.736z M983.081,287.018
					c-6.996,2.304-12.663,6.906-17,13.813c-1.152,2.922-1.683,6.464-1.594,10.625v9.031v7.438v5.313v9.563v2.125v6.906v10.625v1.594
					v2.125v1.594v2.656v1.594v2.656v10.625v4.25v9.563v2.125v1.594v2.125v2.125v2.656c0.176,2.125,1.063,4.25,2.656,6.375
					l1.063,3.188c3.629,4.339,8.587,7.703,14.875,10.094h6.375h1.594h9.031h2.125h6.906h9.563h1.594h2.125h10.625h1.594h2.125h6.375
					h1.594h9.031h10.625h1.594h2.125h5.313c-18.683-16.556-18.507-31.786,0.531-45.688c12.837-3.009,23.641,1.063,32.406,12.219
					c0.353-1.063,0.531-2.478,0.531-4.25v-76.5c0.353-2.743,0.177-6.109-0.531-10.094v-1.594c-1.328-3.629-3.632-6.993-6.906-10.094
					l-0.531-1.063c-2.835-2.036-6.375-3.806-10.625-5.313h-3.719h-4.25h-9.031h-2.125h-6.906h-2.656h-5.844h-3.719h-4.25h-9.031
					h-2.125h-6.906h-6.375h-1.594h-9.031h-10.625h-1.594h-2.125h-1.594h-2.656h-1.594H983.081z"/>
				<path fill="#446E7B" d="M1193.722,344.393h6.375h1.594h9.031h2.125h2.125h2.125h2.125h5.844h9.563h2.125h3.188h2.656h3.188
					h9.031h3.188h3.719h3.188h3.719h3.188h3.719h3.188h3.719h10.625h1.594l3.719,0.531c1.771,1.152,4.071,2.214,6.906,3.188
					c9.208,7.703,11.688,17.621,7.438,29.75c-5.933,11.866-21.516,16.292-46.75,13.281h-3.719h-4.25h-9.031h-2.125h-6.906h-9.563
					h-1.594h-2.125h-2.125h-6.375h-1.594h-9.031h-2.125h-6.906h-2.656h-2.125c-2.304-0.618-5.136-1.681-8.5-3.188l-1.594-0.531
					c-4.25-3.453-7.261-8.056-9.031-13.813C1172.206,359.002,1178.581,349.263,1193.722,344.393z"/>
				<path fill="#446E7B" d="M1402.768,239.736h6.375h1.594h9.031h2.125h6.906h2.656h5.844h6.375h1.594h9.031h2.125h6.906h6.375
					h1.594h9.031h10.625h1.594h2.125h1.594h2.656h1.594h7.438h9.563h2.125h1.594h10.625h1.594h4.25h10.625h1.594l9.563,2.656
					c7.79,5.313,11.864,13.105,12.219,23.375c-2.125,10.007-8.323,16.913-18.594,20.719l-8.5,0.531h-2.125h-1.594h-2.125h-1.594
					h-7.438h-9.563h-2.125h-2.125h-7.438h-10.625h-1.594h-2.125h-3.719h-3.188h-3.188h-10.625h-6.375h-1.594h-9.031h-2.125h-2.125
					h-2.125h-9.563h-2.125h-2.656h-6.375h-1.594h-9.031h-2.125h-6.906h-2.656h-2.125h-4.25
					c-10.979,3.366-17.179,11.156-18.594,23.375c0.618,11.335,6.641,19.304,18.063,23.906l10.625,0.531h1.594h2.125h1.594h7.438
					h6.906h9.031h6.906h2.656h3.188h9.031h6.375h1.594h9.031h2.125h6.906h3.719h3.719h10.625h1.594
					c2.212,0.71,4.868,1.063,7.969,1.063l6.375,2.125l1.594,0.531h1.594l1.063,1.063l1.594,0.531l2.125,0.531l1.594,0.531
					c1.415,1.063,3.188,1.949,5.313,2.656l0.531,1.063c31.165,19.569,41.259,47.902,30.281,85
					c-6.641,18.063-19.569,31.875-38.781,41.438c-2.304,0.444-5.136,1.328-8.5,2.656l-4.25,1.063l-3.719,0.531l-2.125,0.531
					c-1.859-0.177-3.984,0-6.375,0.531h-1.594h-1.594h-2.125h-3.719h-1.594h-1.594h-1.594h-7.438h-9.563h-2.125h-6.906h-2.656
					h-3.188h-9.031h-3.188H1428.8h-10.625h-1.594h-2.125h-1.594h-2.656h-1.594h-2.125h-4.25h-4.25h-6.375h-1.594h-9.031h-2.125
					h-2.125h-2.125h-9.563h-2.125h-2.656h-3.719l-3.719-0.531c-9.21-3.099-15.229-9.828-18.063-20.188
					c-0.179-10.271,4.427-18.415,13.813-24.438c1.415,0,3.009-0.531,4.781-1.594l8.5-0.531h2.125h1.594h2.125h1.594h7.438h9.563
					h2.125h2.656h3.188h2.125h2.125h16.469h9.563h2.125h2.656h2.656h2.656h2.656h2.656h2.656h10.625h1.594h2.125h1.594h2.656h1.594
					h7.438h3.188h6.375h1.594h9.031h2.125h6.906h2.656h2.125l3.719-0.531c6.728-2.833,12.04-8.145,15.938-15.938
					c2.212-11.598-1.683-21.161-11.688-28.688c-3.188-1.328-7.085-2.212-11.688-2.656h-6.375h-1.594h-9.031h-2.125h-6.906h-9.563
					h-1.594h-2.125h-2.125h-6.375h-1.594h-9.031h-2.125h-6.906h-2.656h-2.125h-10.625h-1.594h-2.125h-1.594h-2.656h-1.594h-4.25
					h-3.719l-12.219-2.125l-2.125-0.531l-1.594-0.531c-0.531-0.266-1.241-0.442-2.125-0.531c-2.214-1.415-5.401-2.833-9.563-4.25
					l-1.063-1.063l-1.594-1.063l-2.125-0.531l-1.594-1.063c-1.063-1.239-2.479-2.301-4.25-3.188l-7.969-7.438l-0.531-1.063
					l-1.063-0.531l-0.531-1.063l-1.063-0.531c-17.266-22.489-20.099-47.813-8.5-75.969
					C1353.805,256.56,1373.992,243.103,1402.768,239.736z"/>
				<path fill="#446E7B" d="M1660.026,239.736h6.375h1.594h9.031h2.125h2.125h2.125h2.125h5.844h9.563h2.125h3.188h2.656h3.188
					h3.719h3.188h3.719h16.469h1.594h1.594h10.625h4.25h4.25c2.302,0.531,5.313,0.886,9.031,1.063l1.063,0.531h1.594l3.719,1.063
					l1.594,0.531l2.656,0.531l1.063,1.063h1.594l1.594,0.531c16.38,7.527,29.13,20.277,38.25,38.25v0.531v-0.531v1.063v-0.531v0.531
					c0.353,1.507,1.063,3.101,2.125,4.781l0.531,3.719l0.531,1.063c0.177,1.152,0.531,2.391,1.063,3.719v1.594l1.063,9.031v2.125
					v4.25v1.594v2.125v1.594v1.594v1.594v2.125v1.594v1.594v1.594v2.125v2.125v2.125v5.844v6.906v2.656v2.125v6.375v1.594v9.031
					v2.125v6.906v2.656v2.125v9.563v2.125v10.625v1.594l-0.531,3.188v3.188l-2.125,9.563l-0.531,1.063l-0.531,1.594v1.594
					l-1.063,1.594l-0.531,2.656l-5.313,9.563l-0.531,1.063l-0.531,1.063l-1.063,1.063l-1.063,1.594l-1.063,1.063l-0.531,1.594
					c-0.886,0.71-1.948,1.772-3.188,3.188l-1.063,1.063c-0.886,0.797-1.948,2.038-3.188,3.719c-0.354,0.089-0.71,0.444-1.063,1.063
					c-2.214,1.063-4.516,2.835-6.906,5.313l-3.719,2.125l-1.594,0.531l-1.063,0.531c-1.417,0.62-2.835,1.507-4.25,2.656
					c-1.948,0.531-4.25,1.417-6.906,2.656c-0.354-0.087-0.71,0.089-1.063,0.531c-2.656,0.179-5.667,0.886-9.031,2.125h-1.594h-1.594
					l-1.063,0.531h-4.25l-2.125,0.531h-6.375h-1.594h-9.031h-2.125h-6.906h-9.563h-1.594h-2.125h-10.625h-1.594h-2.125h-3.719h-4.25
					h-9.031h-10.625h-1.594h-2.125h-1.594h-2.656h-1.594h-7.438l-4.25-0.531c-47.194-7.614-68.976-37.895-65.344-90.844v-54.188
					C1588.131,277.455,1610.797,246.998,1660.026,239.736z M1657.901,287.018c-6.995,2.304-12.663,6.906-17,13.813
					c-1.151,2.922-1.683,6.464-1.594,10.625v9.031v7.438v5.313v9.563v2.125v6.906v10.625v1.594v2.125v1.594v2.656v1.594v2.656
					v10.625v4.25v9.563v2.125v1.594v2.125v2.125v2.656c0.442,2.656,1.505,5.491,3.188,8.5l0.531,1.063
					c3.099,3.808,7.349,6.996,12.75,9.563c3.099,0.531,6.993,0.71,11.688,0.531h3.719h1.594h2.125h1.594h1.594h5.844h2.125h9.031
					h2.125h9.031h6.906h1.594h3.719h16.469h1.594h1.594h10.625h4.25h4.25h4.25l3.719-0.531c4.958-1.946,9.208-5.313,12.75-10.094
					c1.594-2.212,2.833-5.047,3.719-8.5V305.611c-1.417-4.692-4.073-9.118-7.969-13.281c-2.835-2.036-6.375-3.806-10.625-5.313
					h-3.719h-4.25h-9.031h-2.125h-6.906h-2.656h-5.844h-3.719h-4.25h-9.031h-2.125h-6.906h-6.375h-1.594h-9.031h-10.625h-1.594
					h-2.125h-1.594h-2.656h-1.594H1657.901z"/>
				<path fill="#446E7B" d="M1869.604,239.736c8.853-0.176,16.469,3.366,22.844,10.625c2.302,4.694,3.54,10.183,3.719,16.469v6.375
					v1.594v9.031v2.125v6.906v9.563v1.594v2.125v10.625v1.594v2.125v6.375v1.594v9.031v10.625v1.594v2.125v1.594v2.656v1.594v7.438
					v4.25v4.25v10.625v1.594v2.125v1.594v2.656v1.594v7.438v9.563v2.125v4.25v10.625v1.594h6.375h1.594h9.031h2.125h6.906h2.656
					h5.844h6.375h1.594h9.031h2.125h6.906h6.375h1.594h9.031h10.625h1.594h2.125h1.594h2.656h1.594h7.438h9.563h2.125h1.594h10.625
					h1.594h4.25h10.625h1.594h4.25h10.625h1.594l5.844,0.531h1.594c7.083,2.391,12.75,7.172,17,14.344
					c3.54,12.839-0.71,23.109-12.75,30.813c-5.401,1.417-12.308,1.946-20.719,1.594h-1.594h-1.594h-5.313h-1.594h-9.031h-6.906
					h-2.125h-6.906h-2.656h-2.656h-2.656h-2.656h-10.625h-1.594h-2.125h-3.188h-3.188h-10.625h-1.594h-2.125h-9.563h-2.125h-1.594
					h-2.125h-2.125h-3.188h-3.188h-3.188h-3.188h-6.375h-1.594h-9.031h-2.125h-2.125h-2.125h-2.125h-1.594h-2.656h-6.375h-1.594
					h-9.031h-2.125h-6.906h-2.656h-5.844h-3.719c-3.719-0.266-7.792-1.505-12.219-3.719l-1.063-0.531
					c-4.429-3.984-7.616-9.474-9.563-16.469V265.236c-0.179-2.212,0.177-4.692,1.063-7.438l0.531-3.719
					C1854.375,246.908,1860.75,242.127,1869.604,239.736z"/>
				<path fill="#446E7B" d="M2127.128,239.736c8.853,0.089,16.29,3.984,22.313,11.688c1.594,3.277,2.478,7.172,2.656,11.688
					l0.531,1.063v6.375v1.594v9.031v2.125v2.125v2.125v2.125v5.844v9.563v2.125v3.188v2.656v3.188v3.719v3.188v3.719v16.469v1.594
					v1.594v4.25v4.25v10.625v1.594v1.594v6.375v1.594v9.031v2.125v2.125v2.125v9.563v2.125v2.656c0,3.542,0.884,7.261,2.656,11.156
					c3.453,4.781,8.056,8.5,13.813,11.156c3.099,0.531,6.993,0.71,11.688,0.531h3.719h1.594h2.125h1.594h1.594h5.844h2.125h1.594
					h2.125h2.125h2.656h3.188h7.438h6.906h1.594h3.719h3.188h3.188h9.563h2.125h1.594h2.125h1.594h2.125h6.906h9.563h1.594h2.125
					l2.125-0.531c5.224-2.125,9.828-5.844,13.813-11.156c0.974-1.946,1.859-4.603,2.656-7.969V264.705
					c0.087-2.922,0.797-6.109,2.125-9.563v-1.594c11.156-16.469,24.614-18.063,40.375-4.781l4.25,9.563l0.531,4.781v5.313v1.594
					v1.594v2.125v1.594v1.594v1.594v2.125v5.844v2.125v5.313v2.125v2.125v2.656v2.125v10.625v1.594v2.125v6.906v1.594v3.188v16.469
					v1.594v1.594v4.25v4.781v4.25v6.375v1.594v9.031v3.719v10.625v1.594v2.125v1.594v2.656v1.594v3.719l-0.531,4.25v4.25
					l-0.531,3.719l-4.25,13.813l-1.063,1.594l-0.531,1.594l-1.063,1.594c-0.531,0.976-1.063,2.391-1.594,4.25
					c-0.354,0.089-0.71,0.444-1.063,1.063l-0.531,1.594c-19.304,26.12-48.167,36.922-86.594,32.406h-6.375h-1.594h-9.031h-2.125
					h-5.844h-9.031h-10.625h-1.594h-2.125h-5.313c-35.948,3.719-62.688-10.802-80.219-43.563c-0.444-2.301-1.328-5.134-2.656-8.5
					l-1.063-4.25l-0.531-3.719l-0.531-2.125c0.177-1.77,0-3.719-0.531-5.844V263.111c0.087-2.478,0.797-5.313,2.125-8.5v-1.594
					C2111.809,246.111,2118.362,241.685,2127.128,239.736z"/>
				<path fill="#446E7B" d="M2383.456,239.736h6.375h1.594h9.031h2.125h2.125h2.125h2.125h5.844h9.563h2.125h3.188h2.656h3.188
					h9.031h3.188h3.719h3.188h3.719h3.188h3.719h3.719h6.375h1.594h9.031h2.125h6.906h2.656h2.125h2.656h2.125h3.719h4.25h6.375
					h1.594h9.031h2.125h6.906h2.656h2.125h2.656h2.125h10.625h1.594h6.375h1.594h9.031l1.594,0.531h1.594
					c5.844,2.038,10.978,5.933,15.406,11.688c5.399,13.991,1.328,25.147-12.219,33.469c-2.391,0.621-5.226,0.976-8.5,1.063
					c-1.507,0.444-3.276,0.621-5.313,0.531h-6.906h-1.594h-4.25h-9.563h-2.125h-1.594h-2.125h-2.125h-6.906h-10.625h-1.594h-2.125
					h-1.594h-2.656h-1.594h-2.656h-3.188h-3.188v6.375v1.594v9.031v2.125v6.906v2.656v5.844v6.375v1.594v9.031v2.125v6.906v6.375
					v1.594v9.031v10.625v1.594v2.125v1.594v2.656v1.594v7.438v9.563v2.125v10.625v1.594v2.125v1.594v2.656v1.594v6.375v1.594v9.031
					v2.125v6.906v2.656v2.125l-0.531,2.656v2.125c-4.163,10.714-12.308,16.203-24.438,16.469
					c-11.069-1.239-18.328-7.79-21.781-19.656V287.018h-3.719h-4.25h-9.031h-2.125h-6.906h-2.656h-2.125h-9.031h-6.375h-1.594
					h-9.031h-2.125h-6.906h-3.719c-4.429-0.176-9.386-1.415-14.875-3.719c-4.339-3.453-7.526-8.234-9.563-14.344
					C2360.434,253.638,2367.34,243.9,2383.456,239.736z"/>
				<path fill="#446E7B" d="M2639.917,239.736c11.333,0.179,19.478,6.022,24.438,17.531l0.531,4.781v5.313v1.594v1.594v2.125v1.594
					v1.594v1.594v2.125v5.844v2.125v5.313v2.125v10.625v1.594v1.594v2.656v3.188v2.656v3.188v6.375v1.594v9.031v2.125v6.906v2.656
					v2.125v2.656v2.125v6.375v1.594v9.031v2.125v6.906v2.656v2.125v16.469v1.594v9.563v1.594v10.625v1.594v2.125v4.25v4.25v4.25
					v4.25v4.25c0.177,2.835-0.354,5.844-1.594,9.031v1.594c-4.96,9.476-13.104,14.078-24.438,13.813
					c-10.538-1.681-17.444-8.234-20.719-19.656V264.705c-0.179-2.833,0.353-5.844,1.594-9.031v-1.594
					C2623.801,246.643,2630.531,241.861,2639.917,239.736z"/>
				<path fill="#446E7B" d="M2753.339,239.736h6.375h1.594h9.031h2.125h2.125h2.125h2.125h5.844h9.563h2.125h3.188h2.656h3.188
					h3.719h3.188h3.719h16.469h1.594h1.594h10.625h4.25h4.25c2.302,0.531,5.313,0.886,9.031,1.063l1.063,0.531h1.594l3.719,1.063
					l1.594,0.531l2.656,0.531l1.063,1.063h1.594l1.594,0.531c16.38,7.527,29.13,20.277,38.25,38.25v0.531v-0.531v1.063v-0.531v0.531
					c0.353,1.507,1.063,3.101,2.125,4.781l0.531,3.719l0.531,1.063c0.177,1.152,0.531,2.391,1.063,3.719v1.594l1.063,9.031v2.125
					v4.25v1.594v2.125v1.594v1.594v1.594v2.125v1.594v1.594v1.594v2.125v2.125v2.125v5.844v6.906v2.656v2.125v6.375v1.594v9.031
					v2.125v6.906v2.656v2.125v9.563v2.125v10.625v1.594l-0.531,3.188v3.188l-2.125,9.563l-0.531,1.063l-0.531,1.594v1.594
					l-1.063,1.594l-0.531,2.656l-5.313,9.563l-0.531,1.063l-0.531,1.063l-1.063,1.063l-1.063,1.594l-1.063,1.063l-0.531,1.594
					c-0.886,0.71-1.948,1.772-3.188,3.188l-1.063,1.063c-0.886,0.797-1.948,2.038-3.188,3.719c-0.354,0.089-0.71,0.444-1.063,1.063
					c-2.214,1.063-4.516,2.835-6.906,5.313l-3.719,2.125l-1.594,0.531l-1.063,0.531c-1.417,0.62-2.835,1.507-4.25,2.656
					c-1.948,0.531-4.25,1.417-6.906,2.656c-0.354-0.087-0.71,0.089-1.063,0.531c-2.656,0.179-5.667,0.886-9.031,2.125h-1.594h-1.594
					l-1.063,0.531h-4.25l-2.125,0.531h-6.375h-1.594h-9.031h-2.125h-6.906h-9.563h-1.594h-2.125h-10.625h-1.594h-2.125h-3.719h-4.25
					h-9.031h-10.625h-1.594h-2.125h-1.594h-2.656h-1.594h-7.438l-4.25-0.531c-47.194-7.614-68.976-37.895-65.344-90.844v-54.188
					C2681.443,277.455,2704.109,246.998,2753.339,239.736z M2751.214,287.018c-6.995,2.304-12.663,6.906-17,13.813
					c-1.151,2.922-1.683,6.464-1.594,10.625v9.031v7.438v5.313v9.563v2.125v6.906v10.625v1.594v2.125v1.594v2.656v1.594v2.656
					v10.625v4.25v9.563v2.125v1.594v2.125v2.125v2.656c0.442,2.656,1.505,5.491,3.188,8.5l0.531,1.063
					c3.099,3.808,7.349,6.996,12.75,9.563c3.099,0.531,6.993,0.71,11.688,0.531h3.719h1.594h2.125h1.594h1.594h5.844h2.125h9.031
					h2.125h9.031h6.906h1.594h3.719h16.469h1.594h1.594h10.625h4.25h4.25h4.25l3.719-0.531c4.958-1.946,9.208-5.313,12.75-10.094
					c1.594-2.212,2.833-5.047,3.719-8.5V305.611c-1.417-4.692-4.073-9.118-7.969-13.281c-2.835-2.036-6.375-3.806-10.625-5.313
					h-3.719h-4.25h-9.031h-2.125h-6.906h-2.656h-5.844h-3.719h-4.25h-9.031h-2.125h-6.906h-6.375h-1.594h-9.031h-10.625h-1.594
					h-2.125h-1.594h-2.656h-1.594H2751.214z"/>
				<path fill="#446E7B" d="M2962.917,239.736c5.665,0,11.509,1.594,17.531,4.781c1.681,2.391,4.161,4.871,7.438,7.438l2.656,3.188
					l1.063,1.063c1.239,0.976,2.656,2.391,4.25,4.25l1.594,1.063l4.781,5.313l2.125,1.594c0.974,1.507,2.391,2.922,4.25,4.25
					c1.149,1.772,2.922,3.542,5.313,5.313l0.531,1.063l6.375,5.844c0.087,0.355,0.442,0.71,1.063,1.063l0.531,1.063l1.063,1.063
					l1.063,1.063l1.063,1.063l1.063,1.063l1.594,1.594l2.125,2.125l2.656,2.125l2.125,2.656l7.969,7.438
					c2.302,3.011,5.665,6.375,10.094,10.094c0.087,0.355,0.442,0.71,1.063,1.063c0.087,0.355,0.442,0.71,1.063,1.063
					c0.797,1.328,2.036,2.569,3.719,3.719l1.594,1.594c1.681,2.391,4.161,4.871,7.438,7.438c1.149,1.772,2.922,3.542,5.313,5.313
					l0.531,1.063l1.063,0.531l0.531,1.063l3.188,2.656l2.656,3.188l3.188,2.656c1.149,1.772,2.922,3.542,5.313,5.313l0.531,1.063
					l1.063,0.531l2.656,2.656l1.063,1.594l1.063,0.531c0.087,0.355,0.442,0.71,1.063,1.063c0.087,0.355,0.442,0.71,1.063,1.063
					l1.063,1.594l1.594,1.063l1.063,1.594l2.125,2.125l3.188,2.656c1.859,2.569,4.516,5.226,7.969,7.969
					c0.087,0.355,0.442,0.71,1.063,1.063c1.149,1.772,2.922,3.542,5.313,5.313l0.531,1.063l1.063,0.531l2.656,2.656l1.063,1.594
					l1.063,0.531l1.063,1.594l1.063,1.063l1.594,1.063V270.018c-0.444-4.781,0.266-9.739,2.125-14.875v-1.594
					c11.333-16.734,24.969-18.149,40.906-4.25l2.125,3.719c0.353,2.125,1.063,4.605,2.125,7.438v6.375v1.594v9.031v2.125v2.125
					v2.125v2.125v5.844v9.563v2.125v3.188v2.656v3.188v3.719v3.188v3.719v16.469v1.594v1.594v10.625v4.25v4.25v4.25v4.25v10.625
					v3.719v3.188v9.563v2.125v10.625v1.594v2.125v1.594v2.656v1.594v3.719v4.25v3.719v4.25v4.25v4.25v4.25
					c0.266,3.101-0.089,6.641-1.063,10.625v1.594c-3.719,7.969-10.272,13.281-19.656,15.938c-5.667,0-11.511-1.594-17.531-4.781
					c-1.683-2.391-4.163-4.868-7.438-7.438l-2.656-3.188l-1.063-1.063c-1.241-0.974-2.656-2.391-4.25-4.25l-1.594-1.063
					l-4.781-5.313l-2.125-1.594c-0.976-1.505-2.391-2.922-4.25-4.25c-1.151-1.771-2.922-3.54-5.313-5.313l-0.531-1.063l-6.375-5.844
					c-0.089-0.353-0.444-0.708-1.063-1.063l-0.531-1.063l-1.063-1.063l-1.063-1.063l-1.063-1.063l-1.063-1.063l-1.594-1.594
					l-2.125-2.125l-2.656-2.125l-2.125-2.656l-7.969-7.438c-2.304-3.009-5.667-6.375-10.094-10.094
					c-0.089-0.353-0.444-0.708-1.063-1.063c-0.089-0.353-0.444-0.708-1.063-1.063c-0.797-1.328-2.038-2.567-3.719-3.719
					l-1.594-1.594c-1.683-2.391-4.163-4.868-7.438-7.438c-1.151-1.77-2.922-3.54-5.313-5.313l-0.531-1.063l-1.063-0.531
					l-0.531-1.063l-3.188-2.656l-2.656-3.188l-3.188-2.656c-1.151-1.77-2.922-3.54-5.313-5.313l-0.531-1.063l-1.063-0.531
					l-2.656-2.656l-1.063-1.594l-1.063-0.531c-0.089-0.353-0.444-0.708-1.063-1.063c-0.089-0.353-0.444-0.708-1.063-1.063
					l-1.063-1.594l-1.594-1.063l-1.063-1.594l-2.125-2.125l-3.188-2.656c-1.859-2.567-4.516-5.223-7.969-7.969
					c-0.089-0.353-0.444-0.708-1.063-1.063c-1.151-1.77-2.922-3.54-5.313-5.313l-0.531-1.063l-1.063-0.531l-2.656-2.656
					l-1.063-1.594l-1.063-0.531l-1.063-1.594l-1.063-1.063l-1.594-1.063v6.375v1.594v9.031v2.125v6.906v2.656v5.844v6.375v1.594
					v9.031v2.125v6.906v6.375v1.594v9.031v3.188v6.375v1.594v9.031v2.125v2.125v2.125v2.125v5.844v9.563v2.125v4.25l-0.531,8.5
					l-0.531,1.063v2.125c-3.453,8.766-10.183,14.078-20.188,15.938c-10.272,0.797-18.417-3.806-24.438-13.813
					c-1.417-5.399-1.948-12.306-1.594-20.719V266.299l1.063-10.625C2946.801,247.795,2953.354,242.482,2962.917,239.736z"/>
				<path fill="#446E7B" d="M3268.784,239.736h6.375h1.594h9.031h2.125h6.906h2.656h5.844h6.375h1.594h9.031h2.125h6.906h6.375
					h1.594h9.031h10.625h1.594h2.125h1.594h2.656h1.594h7.438h9.563h2.125h1.594h10.625h1.594h4.25h10.625h1.594l9.563,2.656
					c7.79,5.313,11.864,13.105,12.219,23.375c-2.125,10.007-8.323,16.913-18.594,20.719l-8.5,0.531h-2.125h-1.594h-2.125h-1.594
					h-7.438h-9.563h-2.125h-2.125h-7.438h-10.625h-1.594h-2.125h-3.719h-3.188h-3.188h-10.625h-6.375h-1.594h-9.031h-2.125h-2.125
					h-2.125h-9.563h-2.125h-2.656h-6.375h-1.594h-9.031h-2.125h-6.906h-2.656h-2.125h-4.25
					c-10.979,3.366-17.179,11.156-18.594,23.375c0.618,11.335,6.641,19.304,18.063,23.906l10.625,0.531h1.594h2.125h1.594h7.438
					h6.906h9.031h6.906h2.656h3.188h9.031h6.375h1.594h9.031h2.125h6.906h3.719h3.719h10.625h1.594
					c2.212,0.71,4.868,1.063,7.969,1.063l6.375,2.125l1.594,0.531h1.594l1.063,1.063l1.594,0.531l2.125,0.531l1.594,0.531
					c1.415,1.063,3.188,1.949,5.313,2.656l0.531,1.063c31.165,19.569,41.259,47.902,30.281,85
					c-6.641,18.063-19.569,31.875-38.781,41.438c-2.304,0.444-5.136,1.328-8.5,2.656l-4.25,1.063l-3.719,0.531l-2.125,0.531
					c-1.859-0.177-3.984,0-6.375,0.531h-1.594h-1.594h-2.125h-3.719h-1.594h-1.594h-1.594h-7.438h-9.563h-2.125h-6.906h-2.656
					h-3.188h-9.031h-3.188h-16.469h-10.625h-1.594h-2.125h-1.594h-2.656h-1.594h-2.125h-4.25h-4.25h-6.375h-1.594h-9.031h-2.125
					h-2.125h-2.125h-9.563h-2.125h-2.656h-3.719l-3.719-0.531c-9.21-3.099-15.229-9.828-18.063-20.188
					c-0.179-10.271,4.427-18.415,13.813-24.438c1.415,0,3.009-0.531,4.781-1.594l8.5-0.531h2.125h1.594h2.125h1.594h7.438h9.563
					h2.125h2.656h3.188h2.125h2.125h16.469h9.563h2.125h2.656h2.656h2.656h2.656h2.656h2.656h10.625h1.594h2.125h1.594h2.656h1.594
					h7.438h3.188h6.375h1.594h9.031h2.125h6.906h2.656h2.125l3.719-0.531c6.728-2.833,12.04-8.145,15.938-15.938
					c2.212-11.598-1.683-21.161-11.688-28.688c-3.188-1.328-7.085-2.212-11.688-2.656h-6.375h-1.594h-9.031h-2.125h-6.906h-9.563
					h-1.594h-2.125h-2.125h-6.375h-1.594h-9.031h-2.125h-6.906h-2.656h-2.125h-10.625h-1.594h-2.125h-1.594h-2.656h-1.594h-4.25
					h-3.719l-12.219-2.125l-2.125-0.531l-1.594-0.531c-0.531-0.266-1.241-0.442-2.125-0.531c-2.214-1.415-5.401-2.833-9.563-4.25
					l-1.063-1.063l-1.594-1.063l-2.125-0.531l-1.594-1.063c-1.063-1.239-2.479-2.301-4.25-3.188l-7.969-7.438l-0.531-1.063
					l-1.063-0.531l-0.531-1.063l-1.063-0.531c-17.266-22.489-20.099-47.813-8.5-75.969
					C3219.82,256.56,3240.008,243.103,3268.784,239.736z"/>
			</g>
		</g>
	</g>
</g>
<g>
	<g enable-background="new    ">
		<path fill="#C53643" d="M940.946,581.082h2.461h0.615h3.486h0.82h2.666h3.691h0.615h0.82h4.102h0.615h0.82h2.461h0.615h3.486
			h6.357h0.615h0.615h2.666h0.615h0.615h0.615c0.888,0.205,2.051,0.343,3.486,0.41l0.41,0.205h0.615l1.436,0.41l0.615,0.205
			l1.025,0.205l0.41,0.41h0.615l0.615,0.205c1.059,0.753,2.495,1.505,4.307,2.256c0.444,0.479,1.059,0.958,1.846,1.436l1.436,1.23
			l0.615,0.41l1.846,2.051l0.205,0.41l0.41,0.205l1.025,1.641l0.41,0.205l1.436,2.871l0.41,0.615l0.205,0.41l0.205,0.615l0.41,0.41
			c0.068,0.615,0.341,1.436,0.82,2.461c0,0.205,0.068,0.41,0.205,0.615c0,0.548,0.136,1.163,0.41,1.846
			c0,0.205,0.068,0.41,0.205,0.615c-0.035,1.061,0.103,2.291,0.41,3.691v0.82v1.436v0.615v0.82v2.256v2.256v3.486v1.025v0.82v2.666
			v0.615v1.025v1.025v1.025v2.461v0.615v3.486v0.82v2.666v1.436v1.641v4.102v0.615v1.641v1.436v1.436v2.461v0.615v3.486v0.82v1.23
			v4.102v0.615c0.034,0.615-0.035,1.367-0.205,2.256l-0.205,0.615v0.82c-1.128,2.393-3.042,4.307-5.742,5.742
			c-4.888,1.059-8.716-0.718-11.484-5.332c-0.24-0.923-0.376-2.017-0.41-3.281c-0.171-0.581-0.24-1.264-0.205-2.051v-25.635h-2.461
			h-0.615h-3.486h-0.82h-0.82h-0.82h-3.691h-0.82h-2.666h-4.102h-0.615h-1.23h-3.691h-0.82h-0.615h-0.82h-0.615h-0.82h-0.82h-0.82
			h-0.82h-2.256h-3.691h-0.82h-1.23h-1.025h-1.23h-3.486h-1.23h-1.436h-1.23h-1.436h-1.23h-1.436h-1.23v4.102v0.615v0.82v0.615
			v1.025v0.615v2.871v6.357v2.666v1.436v3.691v0.82v0.615v0.82l-0.205,0.615v0.82v0.615l-0.205,0.615v0.615l-1.436,2.666
			c-0.376,0.377-0.787,0.854-1.23,1.436c-0.137,0.034-0.274,0.172-0.41,0.41c-5.708,3.179-10.425,1.948-14.15-3.691
			c-0.547-2.084-0.752-4.75-0.615-7.998v-51.68c0.205-0.923,0.341-2.153,0.41-3.691l0.205-0.41l0.205-1.436l0.205-0.615l0.205-0.615
			l0.615-1.641l0.205-1.025C921.429,588.26,929.427,582.655,940.946,581.082z M940.331,599.334
			c-6.187,1.813-8.58,7.965-7.178,18.457h2.461h0.615h3.486h0.82h0.82h0.82h0.82h2.256h3.691h0.82h1.23h1.025h1.23h1.436h1.23h1.436
			h6.357h0.615h0.615h4.102h1.641h1.641h1.641h1.641h4.102h2.461h0.615h3.486h0.82h0.615c0.308-0.718,0.444-1.469,0.41-2.256
			c1.23-7.553-0.547-12.748-5.332-15.586c-2.598-0.648-5.947-0.854-10.049-0.615h-1.641h-0.615h-0.615h-0.615h-0.615h-0.82h-0.615
			h-2.666h-0.82h-2.871h-1.025h-1.025h-1.025h-1.025h-1.436h-1.641h-3.486h-0.82h-2.666h-4.102h-0.615h-0.615H940.331z"/>
	</g>
</g>
<g enable-background="new    ">
	<path fill="#C53643" d="M1040.274,581.082h2.461h0.615h3.486h0.82h0.82h0.82h0.82h2.256h3.691h0.82h1.23h1.025h1.23h1.436h1.23
		h1.436h6.357h0.615h0.615h4.102h1.641h1.641h1.641h1.641h4.102h1.436h4.102h0.615h0.82h0.615h1.025h0.615
		c1.093,0.069,2.392,0.274,3.896,0.615c2.769,1.505,4.614,3.966,5.537,7.383v0.205v-0.205v0.41v-0.205v0.41v-0.205v0.41v-0.205v0.41
		v-0.205v0.41v-0.205v0.41v-0.205v0.41v-0.205v0.41v-0.205v0.205c-0.582,3.316-2.496,5.914-5.742,7.793
		c-0.889,0.103-1.983,0.308-3.281,0.615h-2.666h-0.615h-0.615h-0.615h-1.641h-0.615h-0.615h-2.051h-0.82h-0.82h-0.82h-0.82h-0.82
		h-4.102h-0.615h-0.82h-0.615h-1.025h-0.615h-0.82h-2.666h-0.615h-1.23h-4.102h-0.615h-0.82h-0.615h-1.025h-0.615h-2.666h-0.615
		h-0.615h-6.357h-4.102h-0.615h-0.82h-0.615h-1.025h-0.615h-0.82h-0.615c-1.504-0.103-3.145,0.103-4.922,0.615
		c-4.751,2.599-6.529,8.546-5.332,17.842h2.461h0.615h3.486h0.82h0.82h0.82h0.82h2.256h3.691h0.82h1.23h1.025h1.23h3.486h1.23h1.436
		h1.23h1.436h1.23h1.436h1.436h2.461h0.615h3.486h0.82h2.666h1.025h0.82h1.025h0.82l1.436,0.205
		c3.828,1.402,6.015,4.273,6.563,8.613c-0.137,3.658-1.915,6.529-5.332,8.613c-1.128,0.343-2.496,0.548-4.102,0.615h-3.691h-0.82
		h-2.871h-2.256h-0.615h-0.82h-3.691h-0.82h-0.615h-0.82h-0.82h-2.461h-0.615h-3.486h-0.82h-0.82h-0.82h-0.82h-2.256h-3.691h-0.82
		h-1.23h-1.025h-1.23h-3.486h-1.23h-1.436h-1.23v2.461v0.615v3.486v0.82v0.82v0.82v0.82v2.256v3.691v0.82v1.23v1.025v1.23v3.486
		v1.23v1.436v1.23l-0.615,3.486c-1.094,2.188-2.871,3.896-5.332,5.127c-9.366,1.538-13.467-3.384-12.305-14.766v-49.424
		c0.17-0.82,0.239-1.776,0.205-2.871l0.82-3.691l0.205-0.41l0.205-0.615c0.205-0.546,0.41-1.298,0.615-2.256
		C1020.552,588.124,1028.618,582.518,1040.274,581.082z"/>
	<path fill="#C53643" d="M1139.582,581.082h2.461h0.615h3.486h0.82h0.82h0.82h0.82h2.256h3.691h0.82h1.23h1.025h1.23h1.436h1.23
		h1.436h6.357h0.615h0.615h4.102h1.641h1.641h1.641h1.641h4.102h1.436h4.102h0.615h0.82h0.615h1.025h0.615
		c1.094,0.069,2.393,0.274,3.896,0.615c2.77,1.505,4.615,3.966,5.537,7.383v0.205v-0.205v0.41v-0.205v0.41v-0.205v0.41v-0.205v0.41
		v-0.205v0.41v-0.205v0.41v-0.205v0.41v-0.205v0.41v-0.205v0.205c-0.582,3.316-2.494,5.914-5.742,7.793
		c-0.889,0.103-1.982,0.308-3.281,0.615h-2.666h-0.615h-0.615h-0.615h-1.641h-0.615h-0.615h-2.051h-0.82h-0.82h-0.82h-0.82h-0.82
		h-4.102h-0.615h-0.82h-0.615h-1.025h-0.615h-0.82h-2.666h-0.615h-1.23h-4.102h-0.615h-0.82h-0.615h-1.025h-0.615h-2.666h-0.615
		h-0.615h-6.357h-4.102h-0.615h-0.82h-0.615h-1.025h-0.615h-0.82h-0.615c-1.504-0.103-3.145,0.103-4.921,0.615
		c-4.751,2.599-6.529,8.546-5.332,17.842h2.461h0.615h3.486h0.82h0.82h0.82h0.82h2.256h3.691h0.82h1.23h1.025h1.23h3.486h1.23h1.436
		h1.23h1.436h1.23h1.436h1.436h2.461h0.615h3.486h0.82h2.666h1.025h0.82h1.025h0.82l1.436,0.205
		c3.828,1.402,6.016,4.273,6.563,8.613c-0.137,3.658-1.914,6.529-5.332,8.613c-1.127,0.343-2.494,0.548-4.102,0.615h-3.691h-0.82
		h-2.871h-2.256h-0.615h-0.82h-3.691h-0.82h-0.615h-0.82h-0.82h-2.461h-0.615h-3.486h-0.82h-0.82h-0.82h-0.82h-2.256h-3.691h-0.82
		h-1.23h-1.025h-1.23h-3.486h-1.23h-1.436h-1.23v2.461v0.615v3.486v0.82v0.82v0.82v0.82v2.256v3.691v0.82v1.23v1.025v1.23v3.486
		v1.23v1.436v1.23l-0.615,3.486c-1.094,2.188-2.871,3.896-5.332,5.127c-9.366,1.538-13.467-3.384-12.305-14.766v-49.424
		c0.17-0.82,0.239-1.776,0.205-2.871l0.82-3.691l0.205-0.41l0.205-0.615c0.205-0.546,0.41-1.298,0.615-2.256
		C1119.861,588.124,1127.927,582.518,1139.582,581.082z"/>
	<path fill="#C53643" d="M1238.892,581.082h2.461h0.615h3.486h0.82h0.82h0.82h0.82h2.256h3.691h0.82h1.23h1.025h1.23h1.436h1.23
		h1.436h6.357h0.615h0.615h4.102h1.641h1.641c0.889,0.205,2.051,0.343,3.486,0.41l0.41,0.205h0.615l1.436,0.41l0.615,0.205
		l1.025,0.205l0.41,0.41h0.615l0.615,0.205c6.323,2.906,11.245,7.828,14.766,14.766v0.205v-0.205v0.41v-0.205v0.205
		c0.136,0.582,0.41,1.197,0.82,1.846l0.205,1.436l0.205,0.41c0.068,0.445,0.205,0.923,0.41,1.436v0.615l0.41,3.486v0.82v1.641v0.615
		v0.82v0.615v0.615v0.615v0.82v0.615v0.615v0.615v0.82v0.82v0.82v2.256v2.666v1.025v0.82v2.461v0.615v3.486v0.82v2.666v1.025v0.82
		v3.691v0.82v4.102v0.615l-0.205,1.23v1.23l-0.82,3.691l-0.205,0.41l-0.205,0.615v0.615l-0.41,0.615l-0.205,1.025l-2.051,3.691
		l-0.205,0.41l-0.205,0.41l-0.41,0.41l-0.41,0.615l-0.41,0.41l-0.205,0.615c-0.342,0.274-0.752,0.685-1.23,1.23l-0.41,0.41
		c-0.342,0.308-0.752,0.787-1.23,1.436c-0.137,0.034-0.274,0.172-0.41,0.41c-0.854,0.41-1.743,1.095-2.666,2.051l-1.436,0.82
		l-0.615,0.205l-0.41,0.205c-0.547,0.239-1.095,0.582-1.641,1.025c-0.752,0.205-1.641,0.547-2.666,1.025
		c-0.137-0.033-0.274,0.034-0.41,0.205c-1.025,0.069-2.188,0.342-3.486,0.82h-0.615h-0.615l-0.41,0.205h-1.641l-0.82,0.205h-2.461
		h-0.615h-3.486h-0.82h-2.666h-3.691h-0.615h-0.82h-4.102h-0.615h-0.82h-1.436h-1.641h-3.486h-4.102h-0.615h-0.82h-0.615h-1.025
		h-0.615h-2.871l-1.641-0.205c-18.219-2.939-26.627-14.629-25.225-35.068v-20.918
		C1211.138,595.643,1219.888,583.886,1238.892,581.082z M1238.072,599.334c-2.7,0.89-4.889,2.666-6.563,5.332
		c-0.444,1.128-0.649,2.496-0.615,4.102v3.486v2.871v2.051v3.691v0.82v2.666v4.102v0.615v0.82v0.615v1.025v0.615v1.025v4.102v1.641
		v3.691v0.82v0.615v0.82v0.82v1.025c0.171,1.025,0.581,2.12,1.23,3.281l0.205,0.41c1.196,1.47,2.837,2.7,4.922,3.691
		c1.196,0.205,2.699,0.274,4.512,0.205h1.436h0.615h0.82h0.615h0.615h2.256h0.82h3.486h0.82h3.486h2.666h0.615h1.436h6.357h0.615
		h0.615h4.102h1.641h1.641h1.641l1.436-0.205c1.914-0.751,3.555-2.051,4.922-3.896c0.615-0.854,1.094-1.948,1.436-3.281v-40.4
		c-0.547-1.811-1.572-3.52-3.076-5.127c-1.095-0.785-2.461-1.469-4.102-2.051h-1.436h-1.641h-3.486h-0.82h-2.666h-1.025h-2.256
		h-1.436h-1.641h-3.486h-0.82h-2.666h-2.461h-0.615h-3.486h-4.102h-0.615h-0.82h-0.615h-1.025h-0.615H1238.072z"/>
	<path fill="#C53643" d="M1311.797,581.082h2.461h0.615h3.486h0.82h0.82h0.82h0.82h2.256h3.691h0.82h1.23h1.025h1.23h3.486h1.23
		h1.436h1.23h1.436h1.23h1.436h1.436h2.461h0.615h3.486h0.82h2.666h1.025h0.82h1.025h0.82h1.436h1.641h2.461h0.615h3.486h0.82h2.256
		h1.641h1.641h1.641c0.889,0,1.982,0.138,3.281,0.41c0.547-0.067,1.094,0,1.641,0.205l0.615,0.205h0.615l0.615,0.205h0.615
		l2.256,1.025h0.615c7.554,3.351,12.749,9.298,15.586,17.842c2.29,7.35,1.265,14.663-3.076,21.943
		c-4.238,6.87-10.801,11.109-19.688,12.715c0.444,0.685,1.129,1.368,2.051,2.051l0.205,0.41l0.41,0.205l1.025,1.025l0.41,0.615
		l0.41,0.205c0.034,0.137,0.171,0.274,0.41,0.41c0.034,0.137,0.171,0.274,0.41,0.41l0.41,0.615l0.615,0.41
		c0.376,0.582,0.924,1.128,1.641,1.641l1.025,1.23l2.666,2.666c0.309,0.342,0.786,0.752,1.436,1.23
		c0.034,0.137,0.171,0.274,0.41,0.41l0.82,1.025c0.581,0.615,1.401,1.367,2.461,2.256c0.034,0.137,0.171,0.274,0.41,0.41l0.205,0.41
		l0.41,0.41l0.41,0.41l0.41,0.41l0.41,0.41c0.309,0.342,0.786,0.752,1.436,1.23c0.034,0.137,0.171,0.274,0.41,0.41l0.82,0.82
		l0.41,0.615c0.034,0.137,0.171,0.274,0.41,0.41c0.104,0.547,0.376,1.095,0.82,1.641c0.684,2.085,0.615,4.341-0.205,6.768
		c-2.119,4.409-5.811,6.186-11.074,5.332c-1.094-0.479-2.324-1.23-3.691-2.256c-0.034-0.136-0.171-0.273-0.41-0.41
		c-0.649-0.923-1.606-1.879-2.871-2.871l-1.025-1.23l-0.41-0.41c-0.479-0.376-1.025-0.923-1.641-1.641l-0.615-0.41l-1.846-2.051
		l-0.82-0.615c-0.376-0.581-0.922-1.128-1.641-1.641c-0.444-0.684-1.127-1.366-2.051-2.051l-0.205-0.41l-2.461-2.256
		c-0.034-0.136-0.171-0.273-0.41-0.41l-0.205-0.41l-0.41-0.41l-0.41-0.41l-0.41-0.41l-0.41-0.41l-0.615-0.615l-0.82-0.82
		l-1.025-0.82l-0.82-1.025l-3.076-2.871l-1.025-1.23c-0.41-0.443-0.957-0.923-1.641-1.436l-0.205-0.41l-0.41-0.205l-0.205-0.41
		l-0.41-0.41l-0.41-0.205c-0.034-0.136-0.171-0.273-0.41-0.41l-0.41-0.615l-0.41-0.205l-1.23-1.436l-0.615-0.615l-1.025-0.82
		l-0.82-1.025h-4.102h-0.615h-0.82h-0.615h-1.025h-0.615h-2.871h-6.357h-2.666h-1.436h-1.23h-1.436v4.102v0.615v0.82v0.615v1.025
		v0.615v2.871v6.357v2.666v1.436v3.691v0.82v0.615v0.82l-0.205,0.615v0.82v0.615l-0.205,0.615v0.615
		c-4.067,7.554-9.468,8.441-16.201,2.666c-0.684-1.161-1.162-2.597-1.436-4.307l-0.205-0.41V581.082z M1330.049,599.334v2.461v0.615
		v3.486v0.82v0.82v0.82v3.691v0.82v1.025v2.871v1.025h2.461h0.615h3.486h0.82h2.666h1.025h2.256h2.461h0.615h3.486h0.82h2.666h2.461
		h0.615h3.486h4.102h0.615h0.82h0.615h1.025h0.615h2.871h1.641h1.641l4.102-0.205c4.272-1.366,6.597-4.442,6.973-9.229
		c-0.307-4.374-2.7-7.383-7.178-9.023h-1.436h-1.641h-3.486h-0.82h-2.666h-1.025h-2.256h-1.436h-1.641h-3.486h-0.82h-2.666h-2.461
		h-0.615h-3.486h-1.23h-1.436h-1.641h-3.486h-0.82h-0.82h-0.82h-0.82h-2.256h-3.691H1330.049z"/>
	<path fill="#C53643" d="M1410.901,581.082h2.461h0.615h3.486h0.82h2.666h3.691h0.615h0.82h4.102h0.615h0.82h2.461h0.615h3.486
		h4.102h0.615h0.82h0.615h1.025h0.615h2.871h1.641h1.641h6.357h0.615h0.615h1.436h4.102h0.615h0.82h0.615h1.025h0.615h0.82h4.102
		h0.615h0.82h0.615l0.615,0.205l3.486,0.205c0.752,0.308,1.709,0.582,2.871,0.82l0.41,0.205l0.615,0.205l0.615,0.205l1.025,0.205
		c12.441,6.29,18.047,17.159,16.816,32.607v2.461v0.615v3.486v0.82v2.666v1.025v4.102v0.615v0.82v0.615v1.025v0.615v2.871
		c1.812,15.073-3.793,26.079-16.816,33.018c-0.889,0.172-1.982,0.513-3.281,1.025l-1.641,0.41l-1.436,0.205l-0.82,0.205
		c-0.684-0.068-1.436,0-2.256,0.205h-2.461h-0.615h-3.486h-0.82h-0.82h-0.82h-0.82h-2.256h-3.691h-0.82h-1.23h-1.025h-1.23h-1.436
		h-1.23h-1.436h-6.357h-0.615h-0.615h-1.641h-1.641h-1.641h-1.436h-2.461h-0.615h-3.486h-0.82h-2.666h-1.025h-0.82h-4.102h-0.615
		h-0.82h-0.615h-1.025h-0.615h-2.871h-2.666h-0.615h-0.615h-0.615V581.082z M1429.153,599.334v2.461v0.615v3.486v0.82v2.666v3.691
		v0.615v0.82v4.102v0.615v0.82v2.461v0.615v3.486v4.102v0.615v0.82v0.615v1.025v0.615v2.871v1.641v1.641v6.357v0.615v0.615v3.691
		v0.82v1.641h2.461h0.615h3.486h0.82h0.82h0.82h0.82h2.256h3.691h0.82h1.23h1.025h1.23h1.436h1.23h1.436h6.357h0.615h0.615h1.641
		h1.641h4.102h0.615h0.615h2.461h0.615h3.486c1.094-0.103,2.256-0.443,3.486-1.025c2.564-1.743,4.067-4.34,4.512-7.793v-38.965
		c-0.547-1.811-1.572-3.52-3.076-5.127c-1.162-0.888-2.666-1.571-4.512-2.051h-1.436h-1.641h-3.486h-0.82h-2.666h-3.691h-0.615
		h-0.82h-4.102h-0.615h-0.82h-1.436h-1.641h-3.486h-4.102h-0.615h-0.82h-0.615h-1.025h-0.615h-2.871h-1.641h-4.102h-0.615h-0.82
		h-0.615h-1.025H1429.153z"/>
</g>
<g>
	<g enable-background="new    ">
		<path fill="#C53643" d="M1537.46,581.082h2.461h0.615h3.486h0.82h2.666h3.691h0.615h0.82h4.102h0.615h0.82h2.461h0.615h3.486
			h6.357h0.615h0.615h2.666h0.615h0.615h0.615c0.888,0.205,2.051,0.343,3.486,0.41l0.41,0.205h0.615l1.436,0.41l0.615,0.205
			l1.025,0.205l0.41,0.41h0.615l0.615,0.205c1.059,0.753,2.495,1.505,4.307,2.256c0.444,0.479,1.059,0.958,1.846,1.436l1.436,1.23
			l0.615,0.41l1.846,2.051l0.205,0.41l0.41,0.205l1.025,1.641l0.41,0.205l1.436,2.871l0.41,0.615l0.205,0.41l0.205,0.615l0.41,0.41
			c0.068,0.615,0.341,1.436,0.82,2.461c0,0.205,0.068,0.41,0.205,0.615c0,0.548,0.136,1.163,0.41,1.846
			c0,0.205,0.068,0.41,0.205,0.615c-0.035,1.061,0.103,2.291,0.41,3.691v0.82v1.436v0.615v0.82v2.256v2.256v3.486v1.025v0.82v2.666
			v0.615v1.025v1.025v1.025v2.461v0.615v3.486v0.82v2.666v1.436v1.641v4.102v0.615v1.641v1.436v1.436v2.461v0.615v3.486v0.82v1.23
			v4.102v0.615c0.034,0.615-0.035,1.367-0.205,2.256l-0.205,0.615v0.82c-1.128,2.393-3.042,4.307-5.742,5.742
			c-4.888,1.059-8.716-0.718-11.484-5.332c-0.24-0.923-0.376-2.017-0.41-3.281c-0.171-0.581-0.24-1.264-0.205-2.051v-25.635h-2.461
			h-0.615h-3.486h-0.82h-0.82h-0.82h-3.691h-0.82h-2.666h-4.102h-0.615h-1.23h-3.691h-0.82h-0.615h-0.82h-0.615h-0.82h-0.82h-0.82
			h-0.82h-2.256h-3.691h-0.82h-1.23h-1.025h-1.23h-3.486h-1.23h-1.436h-1.23h-1.436h-1.23h-1.436h-1.23v4.102v0.615v0.82v0.615
			v1.025v0.615v2.871v6.357v2.666v1.436v3.691v0.82v0.615v0.82l-0.205,0.615v0.82v0.615l-0.205,0.615v0.615l-1.436,2.666
			c-0.376,0.377-0.787,0.854-1.23,1.436c-0.137,0.034-0.274,0.172-0.41,0.41c-5.708,3.179-10.425,1.948-14.15-3.691
			c-0.547-2.084-0.752-4.75-0.615-7.998v-51.68c0.205-0.923,0.341-2.153,0.41-3.691l0.205-0.41l0.205-1.436l0.205-0.615l0.205-0.615
			l0.615-1.641l0.205-1.025C1517.943,588.26,1525.941,582.655,1537.46,581.082z M1536.845,599.334
			c-6.187,1.813-8.58,7.965-7.178,18.457h2.461h0.615h3.486h0.82h0.82h0.82h0.82h2.256h3.691h0.82h1.23h1.025h1.23h1.436h1.23h1.436
			h6.357h0.615h0.615h4.102h1.641h1.641h1.641h1.641h4.102h2.461h0.615h3.486h0.82h0.615c0.308-0.718,0.444-1.469,0.41-2.256
			c1.23-7.553-0.547-12.748-5.332-15.586c-2.598-0.648-5.947-0.854-10.049-0.615h-1.641h-0.615h-0.615h-0.615h-0.615h-0.82h-0.615
			h-2.666h-0.82h-2.871h-1.025h-1.025h-1.025h-1.025h-1.436h-1.641h-3.486h-0.82h-2.666h-4.102h-0.615h-0.615H1536.845z"/>
	</g>
</g>
<g enable-background="new    ">
	<path fill="#C53643" d="M1611.384,581.082h2.461h0.615h3.486h0.82h0.82h0.82h0.82h2.256h3.691h0.82h1.23h1.025h1.23h1.436h1.23
		h1.436h6.357h0.615h0.615h4.102h1.641h1.641h1.641h1.641h4.102h2.461h0.615h3.486h0.82h0.615h1.641h2.666h0.615h0.615h1.641h1.641
		h1.641l4.717,0.615l0.41,0.205l1.641,0.205c9.229,2.974,15.449,9.469,18.662,19.482c2.187,8.888,0.205,17.296-5.947,25.225
		c6.015,6.939,7.998,15.348,5.947,25.225c-2.563,9.263-8.785,15.758-18.662,19.482c-1.094,0.069-2.393,0.342-3.896,0.82h-0.615
		h-0.82c-0.205,0-0.41,0.069-0.615,0.205h-0.615h-0.82h-2.256h-0.615h-2.256h-2.666h-0.615h-2.666h-0.615h-1.641h-2.666h-0.615
		h-0.615h-0.82h-0.82h-3.691h-0.82h-0.615h-0.82h-0.82h-4.102h-0.615h-0.615h-2.461h-0.615h-3.486h-0.82h-2.666h-1.025h-0.82h-1.025
		h-1.23h-2.666h-0.615h-0.615h-2.461h-0.615h-3.486h-0.82h-2.666h-1.025h-0.82h-3.486V581.082z M1629.636,599.334v2.461v0.615v3.486
		v0.82v0.82v0.82v3.691v0.82v1.025v2.871v1.025h2.461h0.615h3.486h0.82h0.82h0.82h0.82h2.256h3.691h0.82h1.23h1.025h1.23h1.436h1.23
		h1.436h6.357h0.615h0.615h4.102h1.641h1.641h1.641h1.641h4.102l1.436-0.205c4.238-1.366,6.563-4.442,6.973-9.229
		c-0.308-4.374-2.701-7.383-7.178-9.023h-1.436h-1.641h-3.486h-0.82h-2.666h-1.025h-2.256h-1.436h-1.641h-3.486h-0.82h-2.666h-2.461
		h-0.615h-3.486h-1.23h-1.436h-1.641h-3.486h-0.82h-0.82h-0.82h-0.82h-2.256h-3.691H1629.636z M1629.636,635.838v2.461v0.615v3.486
		v0.82v0.82v0.82v3.691v0.82v1.025v2.871v1.025h2.461h0.615h3.486h0.82h0.82h0.82h0.82h2.256h3.691h0.82h1.23h1.025h1.23h1.436h1.23
		h1.436h6.357h0.615h0.615h1.641h1.641h4.102h0.615h0.615h2.461h0.615h3.486l1.641-0.205c3.828-1.538,5.947-4.545,6.357-9.023
		c-0.308-4.272-2.632-7.28-6.973-9.023l-4.102-0.205h-0.615h-0.82h-0.615h-2.871h-2.666h-3.486h-2.666h-1.025h-1.23h-3.486h-2.461
		h-0.615h-3.486h-0.82h-2.666h-1.436h-1.436h-1.846h-1.025h-1.23h-1.641h-1.641H1629.636z"/>
	<path fill="#C53643" d="M1718.383,581.082c3.417-0.067,6.357,1.3,8.818,4.102c0.888,1.813,1.367,3.932,1.436,6.357v2.461v0.615
		v3.486v0.82v2.666v3.691v0.615v0.82v4.102v0.615v0.82v2.461v0.615v3.486v4.102v0.615v0.82v0.615v1.025v0.615v2.871v1.641v1.641
		v4.102v0.615v0.82v0.615v1.025v0.615v2.871v3.691v0.82v1.641v4.102v0.615h2.461h0.615h3.486h0.82h2.666h1.025h2.256h2.461h0.615
		h3.486h0.82h2.666h2.461h0.615h3.486h4.102h0.615h0.82h0.615h1.025h0.615h2.871h3.691h0.82h0.615h4.102h0.615h1.641h4.102h0.615
		h1.641h4.102h0.615l2.256,0.205h0.615c2.734,0.923,4.922,2.769,6.563,5.537c1.367,4.956-0.273,8.921-4.922,11.895
		c-2.086,0.547-4.752,0.751-7.998,0.615h-0.615h-0.615h-2.051h-0.615h-3.486h-2.666h-0.82h-2.666h-1.025h-1.025h-1.025h-1.025
		h-4.102h-0.615h-0.82h-1.23h-1.23h-4.102h-0.615h-0.82h-3.691h-0.82h-0.615h-0.82h-0.82h-1.23h-1.23h-1.23h-1.23h-2.461h-0.615
		h-3.486h-0.82h-0.82h-0.82h-0.82h-0.615h-1.025h-2.461h-0.615h-3.487h-0.82h-2.666h-1.025h-2.256h-1.436
		c-1.436-0.103-3.008-0.581-4.717-1.436l-0.41-0.205c-1.709-1.538-2.94-3.657-3.691-6.357v-73.623
		c-0.069-0.854,0.068-1.811,0.41-2.871l0.205-1.436C1712.504,583.851,1714.965,582.005,1718.383,581.082z"/>
	<path fill="#C53643" d="M1835.996,581.082h2.461h0.615h3.486h0.82h0.82h0.82h0.82h2.256h3.691h0.82h1.23h1.025h1.23h1.436h1.23
		h1.436h6.357h0.615h0.615h4.102h1.641h1.641h1.641h1.641h4.102h1.436h4.102h0.615h0.82h0.615h1.025h0.615
		c1.094,0.069,2.392,0.274,3.896,0.615c2.769,1.505,4.614,3.966,5.537,7.383v0.205v-0.205v0.41v-0.205v0.41v-0.205v0.41v-0.205v0.41
		v-0.205v0.41v-0.205v0.41v-0.205v0.41v-0.205v0.41v-0.205v0.205c-0.479,2.599-1.846,4.922-4.102,6.973
		c-1.402,0.718-3.043,1.128-4.922,1.23l-0.41,0.205h-2.461h-0.615h-3.486h-0.82h-0.82h-0.82h-0.82h-2.256h-3.691h-0.82h-1.23h-1.025
		h-1.23h-1.436h-1.23h-1.436h-6.357h-0.615h-0.615h-4.102h-1.641h-1.641h-1.641h-1.641h-4.102h-1.436h-1.23h-1.436
		c-7.793-1.161-12.169,1.915-13.125,9.229v6.357v0.615v0.615v1.641h2.461h0.615h3.486h0.82h2.666h3.691h0.615h0.82h4.102h0.615h0.82
		h2.461h0.615h3.486h6.357h0.615h0.615h1.641c10.63-1.366,16.714,1.163,18.252,7.588c0.238,3.521-1.128,6.598-4.102,9.229
		l-1.23,0.41c-0.82,0.377-1.846,0.65-3.076,0.82h-2.461h-0.615h-3.486h-0.82h-2.666h-1.025h-2.256h-2.461h-0.615h-3.486h-0.82
		h-2.666h-1.436h-1.641h-3.486h-4.102h-0.615h-0.82h-0.615h-1.025h-0.615h-2.871h-1.641h-4.102v2.461v0.615v3.486v0.82v2.666v1.025
		l0.205,1.025c0.82,2.018,2.256,3.794,4.307,5.332l2.666,1.025h2.461h0.615h3.486h0.82h0.82h0.82h0.82h2.256h3.691h0.82h1.23h1.025
		h1.025h2.461h0.615h3.486h0.82h2.666h3.691h0.615h0.82h0.82h2.461h0.615h3.486h0.82h2.666h1.025h0.82h1.436h1.436h1.436
		c3.145-0.376,6.357,0.103,9.639,1.436l2.871,2.666c0.171,0.685,0.513,1.436,1.025,2.256l0.205,1.23l0.205,1.23v0.615v0.615
		c-0.615,3.11-2.461,5.64-5.537,7.588c-2.085,0.547-4.751,0.751-7.998,0.615h-0.615h-0.615h-2.051h-0.615h-3.486h-2.666h-0.82
		h-2.666h-4.102h-0.615h-0.82h-3.486h-1.025h-2.461h-0.615h-3.486h-0.82h-0.82h-0.82h-0.82h-2.256h-3.691h-0.82h-1.23h-1.23h-1.23
		h-1.436h-6.357c-0.923-0.205-2.153-0.341-3.691-0.41l-0.41-0.205l-0.615-0.205h-0.82l-0.615-0.205l-0.615-0.205l-1.641-0.615
		l-0.41-0.205h-0.615c-5.196-2.256-9.434-6.016-12.715-11.279c-0.615-0.786-1.162-1.812-1.641-3.076l-0.41-0.41l-0.205-1.23
		l-0.205-0.41l-0.41-0.615c-0.034-0.956-0.308-2.051-0.82-3.281c0.068-0.546,0-1.094-0.205-1.641c0.068-0.718,0-1.538-0.205-2.461
		v-24.814C1807.354,597.181,1816.103,583.783,1835.996,581.082z"/>
	<path fill="#C53643" d="M1948.635,621.483h2.461h0.615h3.486h0.82h0.82h0.82h0.82h2.256h3.691h0.82h1.23h1.025h1.23h3.486h1.23
		h1.436h1.23h1.436h1.23h1.436h1.23h1.436h4.102h0.615l1.436,0.205c0.684,0.445,1.572,0.855,2.666,1.23
		c3.555,2.974,4.512,6.803,2.871,11.484c-2.29,4.581-8.305,6.289-18.047,5.127h-1.436h-1.641h-3.486h-0.82h-2.666h-3.691h-0.615
		h-0.82h-0.82h-2.461h-0.615h-3.486h-0.82h-2.666h-1.025h-0.82c-0.889-0.238-1.982-0.648-3.281-1.23l-0.615-0.205
		c-1.641-1.333-2.803-3.109-3.486-5.332C1940.33,627.122,1942.791,623.363,1948.635,621.483z"/>
	<path fill="#C53643" d="M2041.535,581.082h2.461h0.615h3.486h0.82h0.82h0.82h0.82h2.256h3.691h0.82h1.23h1.025h1.23h3.486h1.23
		h1.436h1.23h1.436h1.23h1.436h1.436h2.461h0.615h3.486h0.82h2.666h1.025h0.82h1.025h0.82h1.436h1.641h2.461h0.615h3.486h0.82h2.666
		h1.025h0.82h1.025h0.82h4.102h0.615h2.461h0.615h3.486l0.615,0.205h0.615c2.256,0.787,4.238,2.291,5.947,4.512
		c2.085,5.401,0.514,9.708-4.717,12.92c-0.922,0.24-2.017,0.377-3.281,0.41c-0.581,0.172-1.265,0.24-2.051,0.205h-2.666h-0.615
		h-1.641h-3.691h-0.82h-0.615h-0.82h-0.82h-2.666h-4.102h-0.615h-0.82h-0.615h-1.025h-0.615h-1.025h-1.23h-1.23v2.461v0.615v3.486
		v0.82v2.666v1.025v2.256v2.461v0.615v3.486v0.82v2.666v2.461v0.615v3.486v4.102v0.615v0.82v0.615v1.025v0.615v2.871v3.691v0.82
		v4.102v0.615v0.82v0.615v1.025v0.615v2.461v0.615v3.486v0.82v2.666v1.025v0.82l-0.205,1.025v0.82
		c-1.606,4.136-4.751,6.255-9.434,6.357c-4.272-0.479-7.074-3.007-8.408-7.588v-65.42h-1.436h-1.641h-3.486h-0.82h-2.666h-1.025
		h-0.82h-3.486h-2.461h-0.615h-3.486h-0.82h-2.666h-1.436c-1.709-0.067-3.623-0.546-5.742-1.436
		c-1.675-1.333-2.905-3.179-3.691-5.537C2032.648,586.449,2035.314,582.69,2041.535,581.082z"/>
	<path fill="#C53643" d="M2140.536,581.082c4.375,0.069,7.52,2.325,9.434,6.768l0.205,1.846v2.051v0.615v0.615v0.82v0.615v0.615
		v0.615v0.82v2.256v0.82v2.051v0.82v4.102v0.615v0.615v1.025v1.23v1.025v1.23v2.461v0.615v3.486v0.82v2.666v1.025v0.82v1.025v0.82
		v2.461v0.615v3.486v0.82v2.666v1.025v0.82v6.357v0.615v3.691v0.615v4.102v0.615v0.82v1.641v1.641v1.641v1.641v1.641
		c0.068,1.095-0.137,2.256-0.615,3.486v0.615c-1.914,3.658-5.059,5.435-9.434,5.332c-4.067-0.648-6.733-3.179-7.998-7.588v-74.033
		c-0.068-1.093,0.137-2.256,0.615-3.486v-0.615C2134.315,583.748,2136.913,581.902,2140.536,581.082z"/>
</g>
<g enable-background="new    ">
	<path fill="#C53643" d="M2186.475,581.082h2.461h0.615h3.486h0.82h2.666h3.691h0.615h0.82h0.82h2.461h0.615h3.486h0.82h2.666h1.025
		h0.82h4.102h0.615h0.82h0.615h1.025h0.615h1.641h1.436c1.128,0.205,2.494,0.343,4.102,0.41l5.332,1.641l0.615,0.41l0.615,0.205
		l0.615,0.41c0.375,0.205,0.923,0.41,1.641,0.615c10.767,7.383,15.278,18.526,13.535,33.428v2.461v0.615v3.486v0.82v0.82v0.82v0.82
		v2.461v0.615v3.486v0.82v0.82v0.82v0.82v2.256v3.691v0.82v1.23v1.025v1.23v3.486v1.23v1.436v2.461v0.615v3.486v0.82
		c0.136,1.197,0,2.563-0.41,4.102v0.615c-0.65,1.402-1.743,2.905-3.281,4.512c-5.742,2.974-10.392,1.607-13.945-4.102
		c-0.479-2.051-0.685-4.717-0.615-7.998v-51.68l-0.205-1.436c-1.23-2.974-3.556-5.092-6.973-6.357h-6.357h-0.615h-3.691h-0.615
		v2.461v0.615v3.486v0.82v2.666v1.025v2.256v2.461v0.615v3.486v0.82v2.666v2.461v0.615v3.486v4.102v0.615v0.82v0.615v1.025v0.615
		v2.871v3.691v0.82v0.615v1.436v6.357v0.615v0.615v3.691v0.82v1.641v4.102v0.615l-1.436,3.691c-2.428,2.803-5.709,4.032-9.844,3.691
		c-2.701-0.991-4.819-2.904-6.357-5.742c-0.308-1.23-0.445-2.734-0.41-4.512v-62.754c-9.298-1.195-15.245,0.582-17.842,5.332
		c-0.445,1.128-0.65,2.496-0.615,4.102v3.486v2.871v2.051v3.691v0.82v3.691v0.82v0.615v0.82v0.82v4.102v0.615v0.82v0.615v1.025
		v2.256v2.871v1.436v1.23v1.23v1.23v2.461v0.615v3.486v0.82v2.256v3.486v0.82c0.103,1.128,0.033,2.495-0.205,4.102
		c-0.103,1.367-0.513,2.871-1.23,4.512c-6.255,6.255-11.725,5.57-16.406-2.051c-0.035-0.684-0.172-1.436-0.41-2.256v-44.297
		C2158.003,596.873,2166.752,583.953,2186.475,581.082z"/>
</g>
<g enable-background="new    ">
	<path fill="#C53643" d="M2296.455,581.082h2.461h0.615h3.486h0.82h0.82h0.82h0.82h2.256h3.691h0.82h1.23h1.025h1.23h1.436h1.23
		h1.436h6.357h0.615h0.615h4.102h1.641h1.641h1.641h1.641h4.102h1.436h4.102h0.615h0.82h0.615h1.025h0.615
		c1.094,0.069,2.393,0.274,3.896,0.615c2.769,1.505,4.614,3.966,5.537,7.383v0.205v-0.205v0.41v-0.205v0.41v-0.205v0.41v-0.205v0.41
		v-0.205v0.41v-0.205v0.41v-0.205v0.41v-0.205v0.41v-0.205v0.205c-0.479,2.599-1.846,4.922-4.102,6.973
		c-1.401,0.718-3.042,1.128-4.922,1.23l-0.41,0.205h-2.461h-0.615h-3.486h-0.82h-0.82h-0.82h-0.82h-2.256h-3.691h-0.82h-1.23h-1.025
		h-1.23h-1.436h-1.23h-1.436h-6.357h-0.615h-0.615h-4.102h-1.641h-1.641h-1.641h-1.641h-4.102h-1.436h-1.23h-1.436
		c-7.793-1.161-12.168,1.915-13.125,9.229v6.357v0.615v0.615v1.641h2.461h0.615h3.486h0.82h2.666h3.691h0.615h0.82h4.102h0.615h0.82
		h2.461h0.615h3.486h6.357h0.615h0.615h1.641c10.63-1.366,16.714,1.163,18.252,7.588c0.239,3.521-1.128,6.598-4.102,9.229
		l-1.23,0.41c-0.82,0.377-1.846,0.65-3.076,0.82h-2.461h-0.615h-3.486h-0.82h-2.666h-1.025h-2.256h-2.461h-0.615h-3.486h-0.82
		h-2.666h-1.436h-1.641h-3.486h-4.102h-0.615h-0.82h-0.615h-1.025h-0.615h-2.871h-1.641h-4.102v2.461v0.615v3.486v0.82v2.666v1.025
		l0.205,1.025c0.82,2.018,2.256,3.794,4.307,5.332l2.666,1.025h2.461h0.615h3.486h0.82h0.82h0.82h0.82h2.256h3.691h0.82h1.23h1.025
		h1.025h2.461h0.615h3.486h0.82h2.666h3.691h0.615h0.82h0.82h2.461h0.615h3.486h0.82h2.666h1.025h0.82h1.436h1.436h1.436
		c3.145-0.376,6.357,0.103,9.639,1.436l2.871,2.666c0.171,0.685,0.513,1.436,1.025,2.256l0.205,1.23l0.205,1.23v0.615v0.615
		c-0.615,3.11-2.461,5.64-5.537,7.588c-2.085,0.547-4.751,0.751-7.998,0.615h-0.615h-0.615h-2.051h-0.615h-3.486h-2.666h-0.82
		h-2.666h-4.102h-0.615h-0.82h-3.486h-1.025h-2.461h-0.615h-3.486h-0.82h-0.82h-0.82h-0.82h-2.256h-3.691h-0.82h-1.23h-1.23h-1.23
		h-1.436h-6.357c-0.923-0.205-2.153-0.341-3.691-0.41l-0.41-0.205l-0.615-0.205h-0.82l-0.615-0.205l-0.615-0.205l-1.641-0.615
		l-0.41-0.205h-0.615c-5.195-2.256-9.434-6.016-12.715-11.279c-0.615-0.786-1.162-1.812-1.641-3.076l-0.41-0.41l-0.205-1.23
		l-0.205-0.41l-0.41-0.615c-0.034-0.956-0.308-2.051-0.82-3.281c0.068-0.546,0-1.094-0.205-1.641c0.068-0.718,0-1.538-0.205-2.461
		v-24.814C2267.813,597.181,2276.563,583.783,2296.455,581.082z"/>
	<path fill="#C53643" d="M2377.358,581.082c3.418-0.067,6.357,1.3,8.818,4.102c0.889,1.813,1.367,3.932,1.436,6.357v2.461v0.615
		v3.486v0.82v2.666v3.691v0.615v0.82v4.102v0.615v0.82v2.461v0.615v3.486v4.102v0.615v0.82v0.615v1.025v0.615v2.871v1.641v1.641
		v4.102v0.615v0.82v0.615v1.025v0.615v2.871v3.691v0.82v1.641v4.102v0.615h2.461h0.615h3.485h0.82h2.666h1.025h2.256h2.461h0.615
		h3.486h0.82h2.666h2.461h0.615h3.486h4.102h0.615h0.82h0.615h1.025h0.615h2.871h3.691h0.82h0.615h4.102h0.615h1.641h4.102h0.615
		h1.641h4.102h0.615l2.256,0.205h0.615c2.734,0.923,4.922,2.769,6.563,5.537c1.367,4.956-0.273,8.921-4.922,11.895
		c-2.084,0.547-4.75,0.751-7.998,0.615h-0.615h-0.615h-2.051h-0.615h-3.486h-2.666h-0.82h-2.666h-1.025h-1.025h-1.025h-1.025h-4.102
		h-0.615h-0.82h-1.23h-1.23h-4.102h-0.615h-0.82h-3.691h-0.82h-0.615h-0.82h-0.82h-1.23h-1.23h-1.23h-1.23h-2.461h-0.615h-3.486
		h-0.82h-0.82h-0.82h-0.82h-0.614h-1.025h-2.461h-0.615h-3.486h-0.82h-2.666h-1.025h-2.256h-1.436
		c-1.436-0.103-3.008-0.581-4.717-1.436l-0.41-0.205c-1.709-1.538-2.939-3.657-3.691-6.357v-73.623
		c-0.068-0.854,0.068-1.811,0.41-2.871l0.205-1.436C2371.479,583.851,2373.94,582.005,2377.358,581.082z"/>
	<path fill="#C53643" d="M2468.875,581.082c1.742,0.035,3.656,0.513,5.742,1.436c0.58,0.685,1.332,1.368,2.256,2.051l0.205,0.41
		l0.41,0.41l0.615,0.615l0.41,0.41l0.41,0.41l0.41,0.41l0.82,0.615l0.41,0.615l0.615,0.41c0.375,0.582,0.922,1.128,1.641,1.641
		l1.025,1.23l0.82,0.615l0.615,0.82c0.307,0.343,0.785,0.753,1.436,1.23c0.033,0.138,0.17,0.274,0.41,0.41l0.615,0.615
		c0.546,0.82,1.298,1.573,2.256,2.256c0.648,0.923,1.605,1.881,2.871,2.871l1.025,1.23l0.41,0.41l0.41,0.41l1.025,1.025
		c0.41,0.445,0.956,0.923,1.641,1.436l0.205,0.41l0.41,0.205l0.205,0.41l0.41,0.41l0.41,0.205c0.033,0.138,0.17,0.274,0.41,0.41
		l0.41,0.615l0.41,0.205l1.23,1.436c0.307,0.343,0.785,0.753,1.436,1.23c0.033,0.138,0.17,0.274,0.41,0.41
		c0.717,1.061,1.742,2.018,3.076,2.871l2.256-2.461c0.136-0.033,0.272-0.17,0.41-0.41l0.41-0.205l0.41-0.41l0.41-0.41l0.41-0.41
		l0.41-0.41c0.341-0.308,0.751-0.785,1.23-1.436c0.136-0.033,0.272-0.17,0.41-0.41l0.82-0.82c0.58-0.375,1.127-0.923,1.641-1.641
		c0.922-0.648,1.879-1.605,2.871-2.871c0.136-0.033,0.272-0.17,0.41-0.41l2.051-1.846l0.615-0.82
		c0.683-0.443,1.366-1.128,2.051-2.051l0.41-0.205l2.666-2.666l1.025-1.025l0.82-1.025l1.025-1.025
		c0.683-0.443,1.366-1.128,2.051-2.051l0.41-0.205l0.205-0.41l0.41-0.205l2.461-2.666c0.82-0.546,1.571-1.298,2.256-2.256
		l0.615-0.205l2.461-1.436c0.205,0,0.41-0.067,0.615-0.205c2.631-0.341,5.229,0.205,7.793,1.641
		c2.563,2.461,3.656,5.606,3.281,9.434c-0.343,0.582-0.685,1.402-1.025,2.461l-0.205,0.41l-0.41,0.205l-0.205,0.615l-0.41,0.205
		l-0.205,0.41c-0.685,0.445-1.368,1.128-2.051,2.051l-0.41,0.205l-0.205,0.41l-1.025,1.025l-0.615,0.41l-0.205,0.41
		c-0.138,0.035-0.274,0.172-0.41,0.41c-0.138,0.035-0.274,0.172-0.41,0.41l-0.615,0.41l-0.41,0.615
		c-0.582,0.377-1.129,0.923-1.641,1.641l-1.23,1.025l-2.666,2.666c-0.343,0.308-0.753,0.787-1.23,1.436
		c-0.138,0.035-0.274,0.172-0.41,0.41l-1.025,0.82l-0.82,1.025c-0.924,0.65-1.881,1.607-2.871,2.871l-1.23,1.025l-0.41,0.41
		l-0.41,0.41l-0.82,1.025c-0.685,0.445-1.368,1.128-2.051,2.051l-0.41,0.205l-0.205,0.41l-1.025,1.025l-0.615,0.41l-0.205,0.41
		c-0.138,0.035-0.274,0.172-0.41,0.41c-0.138,0.035-0.274,0.172-0.41,0.41l-0.615,0.41l-0.41,0.615
		c-0.582,0.377-1.129,0.923-1.641,1.641l-1.23,1.025l-0.41,0.615l-3.281,3.076v2.461v0.615v3.486v0.82v0.82v0.82v0.82v2.256v3.691
		v0.82v1.23v1.025v1.23v1.436v1.23v1.436v6.357v0.615v0.615v1.436l-0.205,1.436l-0.205,1.436c-2.291,4.684-6.119,6.46-11.484,5.332
		c-2.428-0.889-4.342-2.666-5.742-5.332c-0.309-1.23-0.445-2.734-0.41-4.512v-31.582l-2.461-2.256
		c-0.035-0.136-0.172-0.272-0.41-0.41l-0.205-0.41l-0.41-0.41l-0.41-0.41l-0.41-0.41l-0.41-0.41
		c-0.309-0.341-0.787-0.751-1.436-1.23c-0.035-0.136-0.172-0.272-0.41-0.41l-0.82-0.82c-0.377-0.58-0.924-1.128-1.641-1.641
		c-0.65-0.923-1.607-1.879-2.871-2.871c-0.035-0.136-0.172-0.272-0.41-0.41l-1.846-2.051l-0.82-0.615
		c-0.445-0.683-1.129-1.366-2.051-2.051l-0.205-0.41l-2.666-2.666l-1.025-1.025l-1.025-0.82l-1.025-1.025
		c-0.445-0.683-1.129-1.366-2.051-2.051l-0.205-0.41l-0.41-0.205l-0.205-0.41l-2.666-2.461c-0.445-0.683-1.129-1.366-2.051-2.051
		l-0.205-0.41l-0.41-0.205l-1.025-1.23l-0.41-0.41l-1.23-1.025l-1.025-1.23l-1.641-3.281
		C2460.021,586.414,2462.756,582.655,2468.875,581.082z"/>
	<path fill="#C53643" d="M2597.355,621.483h2.461h0.615h3.486h0.82h0.82h0.82h0.82h2.256h3.691h0.82h1.23h1.025h1.23h3.486h1.23
		h1.436h1.23h1.436h1.23h1.436h1.23h1.436h4.102h0.615l1.436,0.205c0.684,0.445,1.572,0.855,2.666,1.23
		c3.555,2.974,4.512,6.803,2.871,11.484c-2.29,4.581-8.305,6.289-18.047,5.127h-1.436h-1.641h-3.486h-0.82h-2.666h-3.691h-0.615
		h-0.82h-0.82h-2.461h-0.615h-3.486h-0.82h-2.666h-1.025h-0.82c-0.889-0.238-1.982-0.648-3.281-1.23l-0.615-0.205
		c-1.641-1.333-2.803-3.109-3.486-5.332C2589.051,627.122,2591.512,623.363,2597.355,621.483z"/>
	<path fill="#C53643" d="M2710.199,581.082h2.461h0.615h3.486h0.82h2.666h1.025h2.256h2.461h0.615h3.486h0.82h2.666h2.461h0.615
		h3.486h4.102h0.615h0.82h0.615h1.025h0.615h2.871h3.691h0.82h0.615h4.102h0.615h1.641h4.102h0.615l3.691,1.025
		c3.008,2.051,4.58,5.06,4.717,9.023c-0.82,3.863-3.213,6.529-7.178,7.998l-3.281,0.205h-0.82h-0.615h-0.82h-0.615h-2.871h-3.691
		h-0.82h-0.82h-2.871h-4.102h-0.615h-0.82h-1.436h-1.23h-1.23h-4.102h-2.461h-0.615h-3.486h-0.82h-0.82h-0.82h-3.691h-0.82h-1.025
		h-2.461h-0.615h-3.486h-0.82h-2.666h-1.025h-0.82h-1.641c-4.238,1.3-6.631,4.307-7.178,9.023c0.239,4.376,2.564,7.452,6.973,9.229
		l4.102,0.205h0.615h0.82h0.615h2.871h2.666h3.486h2.666h1.025h1.23h3.486h2.461h0.615h3.486h0.82h2.666h1.436h1.436h4.102h0.615
		c0.854,0.274,1.88,0.41,3.076,0.41l2.461,0.82l0.615,0.205h0.615l0.41,0.41l0.615,0.205l0.82,0.205l0.615,0.205
		c0.547,0.41,1.23,0.753,2.051,1.025l0.205,0.41c12.031,7.555,15.928,18.491,11.689,32.813c-2.563,6.973-7.554,12.305-14.971,15.996
		c-0.889,0.172-1.982,0.513-3.281,1.025l-1.641,0.41l-1.436,0.205l-0.82,0.205c-0.717-0.068-1.537,0-2.461,0.205h-0.615h-0.615
		h-0.82h-1.436h-0.615h-0.615h-0.615h-2.871h-3.691h-0.82h-2.666h-1.025h-1.23h-3.486h-1.23h-6.357h-4.102h-0.615h-0.82h-0.615
		h-1.025h-0.615h-0.82h-1.641h-1.641h-2.461h-0.615h-3.486h-0.82h-0.82h-0.82h-3.691h-0.82h-1.025h-1.436l-1.436-0.205
		c-3.555-1.196-5.879-3.794-6.973-7.793c-0.068-3.965,1.709-7.108,5.332-9.434c0.547,0,1.162-0.205,1.846-0.615l3.281-0.205h0.82
		h0.615h0.82h0.615h2.871h3.691h0.82h1.025h1.23h0.82h0.82h6.357h3.691h0.82h1.025h1.025h1.025h1.025h1.025h1.025h4.102h0.615h0.82
		h0.615h1.025h0.615h2.871h1.23h2.461h0.615h3.486h0.82h2.666h1.025h0.82l1.436-0.205c2.598-1.094,4.648-3.145,6.152-6.152
		c0.854-4.478-0.649-8.169-4.512-11.074c-1.23-0.513-2.734-0.854-4.512-1.025h-2.461h-0.615h-3.486h-0.82h-2.666h-3.691h-0.615
		h-0.82h-0.82h-2.461h-0.615h-3.486h-0.82h-2.666h-1.025h-0.82h-4.102h-0.615h-0.82h-0.615h-1.025h-0.615h-1.641h-1.436l-4.717-0.82
		l-0.82-0.205l-0.615-0.205c-0.205-0.103-0.479-0.17-0.82-0.205c-0.854-0.546-2.085-1.093-3.691-1.641l-0.41-0.41l-0.615-0.41
		l-0.82-0.205l-0.615-0.41c-0.41-0.478-0.957-0.888-1.641-1.23l-3.076-2.871l-0.205-0.41l-0.41-0.205l-0.205-0.41l-0.41-0.205
		c-6.664-8.681-7.758-18.457-3.281-29.326C2691.298,587.577,2699.091,582.382,2710.199,581.082z"/>
	<path fill="#C53643" d="M2791.514,581.082c4.375,0.069,7.52,2.325,9.434,6.768l0.205,1.846v2.051v0.615v0.615v0.82v0.615v0.615
		v0.615v0.82v2.256v0.82v2.051v0.82v4.102v0.615v0.615v1.025v1.23v1.025v1.23v2.461v0.615v3.486v0.82v2.666v1.025v0.82v1.025v0.82
		v2.461v0.615v3.486v0.82v2.666v1.025v0.82v6.357v0.615v3.691v0.615v4.102v0.615v0.82v1.641v1.641v1.641v1.641v1.641
		c0.068,1.095-0.137,2.256-0.615,3.486v0.615c-1.914,3.658-5.059,5.435-9.434,5.332c-4.067-0.648-6.733-3.179-7.998-7.588v-74.033
		c-0.068-1.093,0.137-2.256,0.615-3.486v-0.615C2785.293,583.748,2787.891,581.902,2791.514,581.082z"/>
	<path fill="#C53643" d="M2835.452,581.082h2.461h0.615h3.486h0.82h2.666h3.691h0.615h0.82h0.82h2.461h0.615h3.486h0.82h2.666h1.025
		h0.82h4.102h0.615h0.82h0.615h1.025h0.615h1.641h1.436c1.127,0.205,2.494,0.343,4.102,0.41l5.332,1.641l0.615,0.41l0.615,0.205
		l0.615,0.41c0.375,0.205,0.922,0.41,1.641,0.615c10.766,7.383,15.277,18.526,13.535,33.428v2.461v0.615v3.486v0.82v0.82v0.82v0.82
		v2.461v0.615v3.486v0.82v0.82v0.82v0.82v2.256v3.691v0.82v1.23v1.025v1.23v3.486v1.23v1.436v2.461v0.615v3.486v0.82
		c0.136,1.197,0,2.563-0.41,4.102v0.615c-0.65,1.402-1.744,2.905-3.281,4.512c-5.742,2.974-10.392,1.607-13.945-4.102
		c-0.479-2.051-0.685-4.717-0.615-7.998v-51.68l-0.205-1.436c-1.23-2.974-3.556-5.092-6.973-6.357h-6.357h-0.615h-3.691h-0.615
		v2.461v0.615v3.486v0.82v2.666v1.025v2.256v2.461v0.615v3.486v0.82v2.666v2.461v0.615v3.486v4.102v0.615v0.82v0.615v1.025v0.615
		v2.871v3.691v0.82v0.615v1.436v6.357v0.615v0.615v3.691v0.82v1.641v4.102v0.615l-1.436,3.691c-2.428,2.803-5.709,4.032-9.844,3.691
		c-2.701-0.991-4.82-2.904-6.357-5.742c-0.309-1.23-0.445-2.734-0.41-4.512v-62.754c-9.298-1.195-15.245,0.582-17.842,5.332
		c-0.445,1.128-0.65,2.496-0.615,4.102v3.486v2.871v2.051v3.691v0.82v3.691v0.82v0.615v0.82v0.82v4.102v0.615v0.82v0.615v1.025
		v2.256v2.871v1.436v1.23v1.23v1.23v2.461v0.615v3.486v0.82v2.256v3.486v0.82c0.102,1.128,0.033,2.495-0.205,4.102
		c-0.104,1.367-0.514,2.871-1.23,4.512c-6.256,6.255-11.725,5.57-16.406-2.051c-0.035-0.684-0.172-1.436-0.41-2.256v-44.297
		C2806.98,596.873,2815.729,583.953,2835.452,581.082z"/>
	<path fill="#C53643" d="M2908.715,581.082h2.461h0.615h3.486h0.82h2.666h1.025h2.256h2.461h0.615h3.486h0.82h2.666h2.461h0.615
		h3.486h4.102h0.615h0.82h0.615h1.025h0.615h2.871h3.691h0.82h0.615h1.436h6.357h0.615h0.615h2.461h0.615h3.486h0.82h2.666h1.025
		c0.889,0.103,1.982,0.308,3.281,0.615h0.615l0.82,0.205l0.41,0.205l0.82,0.205h0.615c0.41,0.24,0.957,0.445,1.641,0.615
		l0.615,0.205l1.23,0.82h0.615c6.563,3.521,11.143,9.195,13.74,17.021c3.657,15.826-2.427,27.105-18.252,33.838l-4.512,0.82
		l-1.436,0.205h-0.615h-2.461h-0.615h-3.486h-0.82h-0.82h-0.82h-0.82h-2.256h-3.691h-0.82h-1.23h-1.025h-1.23h-3.486h-1.23h-1.436
		h-2.461h-0.615h-3.486h-0.82h-4.102h-0.615h-0.82h-0.615h-1.025h-0.615h-4.102h-1.641v4.102v0.615v0.82v0.615v1.025v0.615v2.871
		v6.357v2.666v1.436v3.691v0.82v0.615v0.82l-0.205,0.615v0.82v0.615l-0.205,0.615v0.615c-4.067,7.554-9.468,8.441-16.201,2.666
		c-0.684-1.161-1.162-2.597-1.436-4.307l-0.205-0.41V581.082z M2926.967,599.334v2.461v0.615v3.486v0.82v0.82v0.82v3.691v0.82v1.025
		v2.871v1.025h2.461h0.615h3.486h0.82h2.666h1.025h2.256h2.461h0.615h3.486h0.82h2.666h2.461h0.615h3.486h4.102h0.615h0.82h0.615
		h1.025h0.615h2.871h1.641h1.641l4.102-0.205c4.272-1.366,6.597-4.442,6.973-9.229c-0.307-4.374-2.7-7.383-7.178-9.023h-1.436
		h-1.641h-3.486h-0.82h-2.666h-1.025h-2.256h-1.436h-1.641h-3.486h-0.82h-2.666h-2.461h-0.615h-3.486h-1.23h-1.436h-1.641h-3.486
		h-0.82h-0.82h-0.82h-0.82h-2.256h-3.691H2926.967z"/>
	<path fill="#C53643" d="M3015.715,581.082c3.418-0.067,6.357,1.3,8.818,4.102c0.889,1.813,1.367,3.932,1.436,6.357v2.461v0.615
		v3.486v0.82v2.666v3.691v0.615v0.82v4.102v0.615v0.82v2.461v0.615v3.486v4.102v0.615v0.82v0.615v1.025v0.615v2.871v1.641v1.641
		v4.102v0.615v0.82v0.615v1.025v0.615v2.871v3.691v0.82v1.641v4.102v0.615h2.461h0.615h3.486h0.82h2.666h1.025h2.256h2.461h0.615
		h3.486h0.82h2.666h2.461h0.615h3.486h4.102h0.615h0.82h0.615h1.025h0.615h2.871h3.691h0.82h0.615h4.102h0.615h1.641h4.102h0.615
		h1.641h4.102h0.615l2.256,0.205h0.615c2.734,0.923,4.922,2.769,6.563,5.537c1.367,4.956-0.273,8.921-4.922,11.895
		c-2.085,0.547-4.751,0.751-7.998,0.615h-0.615h-0.615h-2.051h-0.615h-3.486h-2.666h-0.82h-2.666h-1.025h-1.025h-1.025h-1.025
		h-4.102h-0.615h-0.82h-1.23h-1.23h-4.102h-0.615h-0.82h-3.691h-0.82h-0.615h-0.82h-0.82h-1.23h-1.23h-1.23h-1.23h-2.461h-0.615
		h-3.486h-0.82h-0.82h-0.82h-0.82h-0.615h-1.025h-2.461h-0.615h-3.486h-0.82h-2.666h-1.025h-2.256h-1.436
		c-1.436-0.103-3.008-0.581-4.717-1.436l-0.41-0.205c-1.709-1.538-2.939-3.657-3.691-6.357v-73.623
		c-0.068-0.854,0.068-1.811,0.41-2.871l0.205-1.436C3009.836,583.851,3012.297,582.005,3015.715,581.082z"/>
	<path fill="#C53643" d="M3115.127,581.082c4.375,0.069,7.52,2.325,9.434,6.768l0.205,1.846v2.051v0.615v0.615v0.82v0.615v0.615
		v0.615v0.82v2.256v0.82v2.051v0.82v4.102v0.615v0.615v1.025v1.23v1.025v1.23v2.461v0.615v3.486v0.82v2.666v1.025v0.82v1.025v0.82
		v2.461v0.615v3.486v0.82v2.666v1.025v0.82v6.357v0.615v3.691v0.615v4.102v0.615v0.82v1.641v1.641v1.641v1.641v1.641
		c0.068,1.095-0.137,2.256-0.615,3.486v0.615c-1.914,3.658-5.059,5.435-9.434,5.332c-4.067-0.648-6.733-3.179-7.998-7.588v-74.033
		c-0.068-1.093,0.137-2.256,0.615-3.486v-0.615C3108.906,583.748,3111.504,581.902,3115.127,581.082z"/>
	<path fill="#C53643" d="M3158.911,581.082h2.461h0.615h3.486h0.82h0.82h0.82h0.82h2.256h3.691h0.82h1.23h1.025h1.23h1.436h1.23
		h1.436h6.357h0.615h0.615h4.102h1.641h1.641h1.641h1.641h4.102h1.436h4.102h0.615h0.82h0.615h1.025h0.615
		c1.094,0.069,2.392,0.274,3.896,0.615c2.769,1.505,4.614,3.966,5.537,7.383v0.205v-0.205v0.41v-0.205v0.41v-0.205v0.41v-0.205v0.41
		v-0.205v0.41v-0.205v0.41v-0.205v0.41v-0.205v0.41v-0.205v0.205c-0.582,3.316-2.495,5.914-5.742,7.793
		c-0.89,0.103-1.982,0.308-3.281,0.615h-2.666h-0.615h-0.615h-0.615h-1.641h-0.615h-0.615h-2.051h-0.82h-0.82h-0.82h-0.82h-0.82
		h-4.102h-0.615h-0.82h-0.615h-1.025h-0.615h-0.82h-2.666h-0.615h-1.23h-4.102h-0.615h-0.82h-0.615h-1.025h-0.615h-2.666h-0.615
		h-0.615h-6.357h-4.102h-0.615h-0.82h-0.615h-1.025h-0.615h-0.82h-0.615c-1.505-0.103-3.146,0.103-4.922,0.615
		c-4.751,2.599-6.529,8.546-5.332,17.842h2.461h0.615h3.486h0.82h0.82h0.82h0.82h2.256h3.691h0.82h1.23h1.025h1.23h3.486h1.23h1.436
		h1.23h1.436h1.23h1.436h1.436h2.461h0.615h3.486h0.82h2.666h1.025h0.82h1.025h0.82l1.436,0.205
		c3.827,1.402,6.016,4.273,6.563,8.613c-0.137,3.658-1.915,6.529-5.332,8.613c-1.128,0.343-2.495,0.548-4.102,0.615h-3.691h-0.82
		h-2.871h-2.256h-0.615h-0.82h-3.691h-0.82h-0.615h-0.82h-0.82h-2.461h-0.615h-3.486h-0.82h-0.82h-0.82h-0.82h-2.256h-3.691h-0.82
		h-1.23h-1.025h-1.23h-3.486h-1.23h-1.436h-1.23v2.461v0.615v3.486v0.82v0.82v0.82v0.82v2.256v3.691v0.82v1.23v1.025v1.23v3.486
		v1.23v1.436v1.23l-0.615,3.486c-1.095,2.188-2.871,3.896-5.332,5.127c-9.365,1.538-13.467-3.384-12.305-14.766v-49.424
		c0.171-0.82,0.238-1.776,0.205-2.871l0.82-3.691l0.205-0.41l0.205-0.615c0.205-0.546,0.41-1.298,0.615-2.256
		C3139.189,588.124,3147.255,582.518,3158.911,581.082z"/>
	<path fill="#C53643" d="M3240.225,581.082c4.375,0.069,7.52,2.325,9.434,6.768l0.205,1.846v2.051v0.615v0.615v0.82v0.615v0.615
		v0.615v0.82v2.256v0.82v2.051v0.82v4.102v0.615v0.615v1.025v1.23v1.025v1.23v2.461v0.615v3.486v0.82v2.666v1.025v0.82v1.025v0.82
		v2.461v0.615v3.486v0.82v2.666v1.025v0.82v6.357v0.615v3.691v0.615v4.102v0.615v0.82v1.641v1.641v1.641v1.641v1.641
		c0.068,1.095-0.137,2.256-0.615,3.486v0.615c-1.914,3.658-5.059,5.435-9.434,5.332c-4.067-0.648-6.733-3.179-7.998-7.588v-74.033
		c-0.068-1.093,0.137-2.256,0.615-3.486v-0.615C3234.004,583.748,3236.602,581.902,3240.225,581.082z"/>
	<path fill="#C53643" d="M3284.214,581.082h2.461h0.615h3.486h0.82h0.82h0.82h0.82h2.256h3.691h0.82h1.23h1.025h1.23h1.436h1.23
		h1.436h6.357h0.615h0.615h4.102h1.641h1.641h1.641h1.641h4.102h1.436h4.102h0.615h0.82h0.615h1.025h0.615
		c1.094,0.069,2.392,0.274,3.896,0.615c2.769,1.505,4.614,3.966,5.537,7.383v0.205v-0.205v0.41v-0.205v0.41v-0.205v0.41v-0.205v0.41
		v-0.205v0.41v-0.205v0.41v-0.205v0.41v-0.205v0.41v-0.205v0.205c-0.479,2.599-1.846,4.922-4.102,6.973
		c-1.402,0.718-3.043,1.128-4.922,1.23l-0.41,0.205h-2.461h-0.615h-3.486h-0.82h-0.82h-0.82h-0.82h-2.256h-3.691h-0.82h-1.23h-1.025
		h-1.23h-1.436h-1.23h-1.436h-6.357h-0.615h-0.615h-4.102h-1.641h-1.641h-1.641h-1.641h-4.102h-1.436h-1.23h-1.436
		c-7.793-1.161-12.169,1.915-13.125,9.229v6.357v0.615v0.615v1.641h2.461h0.615h3.486h0.82h2.666h3.691h0.615h0.82h4.102h0.615h0.82
		h2.461h0.615h3.486h6.357h0.615h0.615h1.641c10.63-1.366,16.714,1.163,18.252,7.588c0.238,3.521-1.128,6.598-4.102,9.229
		l-1.23,0.41c-0.82,0.377-1.846,0.65-3.076,0.82h-2.461h-0.615h-3.486h-0.82h-2.666h-1.025h-2.256h-2.461h-0.615h-3.486h-0.82
		h-2.666h-1.436h-1.641h-3.486h-4.102h-0.615h-0.82h-0.615h-1.025h-0.615h-2.871h-1.641h-4.102v2.461v0.615v3.486v0.82v2.666v1.025
		l0.205,1.025c0.82,2.018,2.256,3.794,4.307,5.332l2.666,1.025h2.461h0.615h3.486h0.82h0.82h0.82h0.82h2.256h3.691h0.82h1.23h1.025
		h1.025h2.461h0.615h3.486h0.82h2.666h3.691h0.615h0.82h0.82h2.461h0.615h3.486h0.82h2.666h1.025h0.82h1.436h1.436h1.436
		c3.145-0.376,6.357,0.103,9.639,1.436l2.871,2.666c0.171,0.685,0.513,1.436,1.025,2.256l0.205,1.23l0.205,1.23v0.615v0.615
		c-0.615,3.11-2.461,5.64-5.537,7.588c-2.085,0.547-4.751,0.751-7.998,0.615h-0.615h-0.615h-2.051h-0.615h-3.486h-2.666h-0.82
		h-2.666h-4.102h-0.615h-0.82h-3.486h-1.025h-2.461h-0.615h-3.486h-0.82h-0.82h-0.82h-0.82h-2.256h-3.691h-0.82h-1.23h-1.23h-1.23
		h-1.436h-6.357c-0.923-0.205-2.153-0.341-3.691-0.41l-0.41-0.205l-0.615-0.205h-0.82l-0.615-0.205l-0.615-0.205l-1.641-0.615
		l-0.41-0.205h-0.615c-5.196-2.256-9.434-6.016-12.715-11.279c-0.615-0.786-1.162-1.812-1.641-3.076l-0.41-0.41l-0.205-1.23
		l-0.205-0.41l-0.41-0.615c-0.034-0.956-0.308-2.051-0.82-3.281c0.068-0.546,0-1.094-0.205-1.641c0.068-0.718,0-1.538-0.205-2.461
		v-24.814C3255.572,597.181,3264.321,583.783,3284.214,581.082z"/>
	<path fill="#C53643" d="M3357.119,581.082h2.461h0.615h3.486h0.82h2.666h3.691h0.615h0.82h4.102h0.615h0.82h2.461h0.615h3.486
		h4.102h0.615h0.82h0.615h1.025h0.615h2.871h1.641h1.641h6.357h0.615h0.615h1.436h4.102h0.615h0.82h0.615h1.025h0.615h0.82h4.102
		h0.615h0.82h0.615l0.615,0.205l3.486,0.205c0.752,0.308,1.709,0.582,2.871,0.82l0.41,0.205l0.615,0.205l0.615,0.205l1.025,0.205
		c12.441,6.29,18.047,17.159,16.816,32.607v2.461v0.615v3.486v0.82v2.666v1.025v4.102v0.615v0.82v0.615v1.025v0.615v2.871
		c1.812,15.073-3.793,26.079-16.816,33.018c-0.889,0.172-1.982,0.513-3.281,1.025l-1.641,0.41l-1.436,0.205l-0.82,0.205
		c-0.684-0.068-1.436,0-2.256,0.205h-2.461h-0.615h-3.486h-0.82h-0.82h-0.82h-0.82h-2.256h-3.691h-0.82h-1.23h-1.025h-1.23h-1.436
		h-1.23h-1.436h-6.357h-0.615h-0.615h-1.641h-1.641h-1.641h-1.436h-2.461h-0.615h-3.486h-0.82h-2.666h-1.025h-0.82h-4.102h-0.615
		h-0.82h-0.615h-1.025h-0.615h-2.871h-2.666h-0.615h-0.615h-0.615V581.082z M3375.371,599.334v2.461v0.615v3.486v0.82v2.666v3.691
		v0.615v0.82v4.102v0.615v0.82v2.461v0.615v3.486v4.102v0.615v0.82v0.615v1.025v0.615v2.871v1.641v1.641v6.357v0.615v0.615v3.691
		v0.82v1.641h2.461h0.615h3.486h0.82h0.82h0.82h0.82h2.256h3.691h0.82h1.23h1.025h1.23h1.436h1.23h1.436h6.357h0.615h0.615h1.641
		h1.641h4.102h0.615h0.615h2.461h0.615h3.486c1.094-0.103,2.256-0.443,3.486-1.025c2.564-1.743,4.067-4.34,4.512-7.793v-38.965
		c-0.547-1.811-1.572-3.52-3.076-5.127c-1.162-0.888-2.666-1.571-4.512-2.051h-1.436h-1.641h-3.486h-0.82h-2.666h-3.691h-0.615
		h-0.82h-4.102h-0.615h-0.82h-1.436h-1.641h-3.486h-4.102h-0.615h-0.82h-0.615h-1.025h-0.615h-2.871h-1.641h-4.102h-0.615h-0.82
		h-0.615h-1.025H3375.371z"/>
</g>
<g>
	<g>
		<defs>
			<rect id="SVGID_21_" width="3454.324" height="875.264"/>
		</defs>
		<clipPath id="SVGID_22_">
			<use xlink:href="#SVGID_21_"  overflow="visible"/>
		</clipPath>
		<path clip-path="url(#SVGID_22_)" fill="#446E7B" d="M1146.85,435.132c0,0,18.5,19.833,19.667,37.667c0,0-9,32.666-53.834-3.334
			L1146.85,435.132z"/>
	</g>
</g>
</svg>
